<svg xmlns="http://www.w3.org/2000/svg" viewBox="0 0 800 500" font-family="Segoe UI, Arial, sans-serif">
  <defs>
    <linearGradient id="bgSc2S" x1="0" y1="0" x2="1" y2="1">
      <stop offset="0%" stop-color="#070707"/>
      <stop offset="100%" stop-color="#0f0f0f"/>
    </linearGradient>
    <marker id="aLeft" markerWidth="10" markerHeight="7" refX="1" refY="3.5" orient="auto">
      <polygon points="10 0, 0 3.5, 10 7" fill="#2ecc71"/>
    </marker>
    <marker id="aLeftTodo" markerWidth="10" markerHeight="7" refX="1" refY="3.5" orient="auto">
      <polygon points="10 0, 0 3.5, 10 7" fill="#4e5559"/>
    </marker>
  </defs>
  <rect width="800" height="500" fill="url(#bgSc2S)" rx="12"/>

  <text x="400" y="35" text-anchor="middle" fill="#2ecc71" font-size="20" font-weight="bold">InView -> SAP: What Data Flows Back Up?</text>

  <!-- SAP target box -->
  <rect x="590" y="55" width="180" height="420" rx="10" fill="rgba(46,204,113,0.12)" stroke="#2ecc71" stroke-width="2"/>
  <rect x="615" y="65" width="130" height="36" rx="6" fill="#2ecc71"/>
  <text x="680" y="88" text-anchor="middle" fill="white" font-size="15" font-weight="bold">SAP ERP</text>

  <!-- ===== IMPLEMENTED ===== -->

  <!-- 1. Production Confirmations - DONE -->
  <rect x="30" y="55" width="490" height="75" rx="8" fill="rgba(46,204,113,0.08)" stroke="rgba(46,204,113,0.4)" stroke-width="1"/>
  <line x1="525" y1="92" x2="585" y2="92" stroke="#2ecc71" stroke-width="2" marker-end="url(#aLeft)"/>
  <text x="50" y="75" fill="#2ecc71" font-size="14" font-weight="bold">Production Confirmations</text>
  <rect x="430" y="61" width="80" height="16" rx="4" fill="rgba(46,204,113,0.25)" stroke="#2ecc71" stroke-width="0.8"/>
  <text x="470" y="73" text-anchor="middle" fill="#2ecc71" font-size="9" font-weight="bold">✓ LIVE</text>
  <text x="50" y="95" fill="#bdc3c7" font-size="11">Actual quantities produced (good + scrap), cycle counts, yield data</text>
  <text x="50" y="112" fill="#7f8c8d" font-size="11">One-click "Knjizenje" (booking) button -> instant SAP confirmation</text>

  <!-- 2. Downtime Records - DONE -->
  <rect x="30" y="145" width="490" height="75" rx="8" fill="rgba(46,204,113,0.08)" stroke="rgba(46,204,113,0.4)" stroke-width="1"/>
  <line x1="525" y1="182" x2="585" y2="182" stroke="#2ecc71" stroke-width="2" marker-end="url(#aLeft)"/>
  <text x="50" y="165" fill="#2ecc71" font-size="14" font-weight="bold">Downtime &amp; Stoppage Data</text>
  <rect x="430" y="151" width="80" height="16" rx="4" fill="rgba(46,204,113,0.25)" stroke="#2ecc71" stroke-width="0.8"/>
  <text x="470" y="163" text-anchor="middle" fill="#2ecc71" font-size="9" font-weight="bold">✓ LIVE</text>
  <text x="50" y="185" fill="#bdc3c7" font-size="11">Stoppage reason codes, duration, affected work center, categorization</text>
  <text x="50" y="202" fill="#7f8c8d" font-size="11">Operators record via "Zastoj" button -> feeds SAP PM module</text>

  <!-- ===== FUTURE TODO ===== -->

  <!-- 3. Labor Hours - TODO -->
  <rect x="30" y="235" width="490" height="75" rx="8" fill="rgba(78,85,89,0.06)" stroke="#4e5559" stroke-width="1" stroke-dasharray="6,4"/>
  <line x1="525" y1="272" x2="585" y2="272" stroke="#4e5559" stroke-width="2" stroke-dasharray="5,3" marker-end="url(#aLeftTodo)"/>
  <text x="50" y="255" fill="#4e5559" font-size="14" font-weight="bold">Labor &amp; Shift Data</text>
  <rect x="430" y="241" width="80" height="16" rx="4" fill="rgba(78,85,89,0.3)" stroke="#4e5559" stroke-width="0.8"/>
  <text x="470" y="253" text-anchor="middle" fill="#949ca1" font-size="9" font-weight="bold">— TODO</text>
  <text x="50" y="275" fill="#7f8c8d" font-size="11">Working hours per order, shift handover data, operator assignments</text>
  <text x="50" y="292" fill="#555c61" font-size="11">"Preuzimanje smene" (shift takeover) -> accurate labor cost tracking</text>

  <!-- 4. Material Consumption - TODO -->
  <rect x="30" y="325" width="490" height="75" rx="8" fill="rgba(78,85,89,0.06)" stroke="#4e5559" stroke-width="1" stroke-dasharray="6,4"/>
  <line x1="525" y1="362" x2="585" y2="362" stroke="#4e5559" stroke-width="2" stroke-dasharray="5,3" marker-end="url(#aLeftTodo)"/>
  <text x="50" y="345" fill="#4e5559" font-size="14" font-weight="bold">Material Consumption</text>
  <rect x="430" y="331" width="80" height="16" rx="4" fill="rgba(78,85,89,0.3)" stroke="#4e5559" stroke-width="0.8"/>
  <text x="470" y="343" text-anchor="middle" fill="#949ca1" font-size="9" font-weight="bold">— TODO</text>
  <text x="50" y="365" fill="#7f8c8d" font-size="11">Actual raw material usage vs planned, waste quantities, batch traceability</text>
  <text x="50" y="382" fill="#555c61" font-size="11">Automatic goods issue posting -> real-time inventory accuracy</text>

  <!-- 5. Order Status - TODO -->
  <rect x="30" y="415" width="490" height="65" rx="8" fill="rgba(78,85,89,0.06)" stroke="#4e5559" stroke-width="1" stroke-dasharray="6,4"/>
  <line x1="525" y1="447" x2="585" y2="447" stroke="#4e5559" stroke-width="2" stroke-dasharray="5,3" marker-end="url(#aLeftTodo)"/>
  <text x="50" y="435" fill="#4e5559" font-size="14" font-weight="bold">Order Status Updates</text>
  <rect x="430" y="421" width="80" height="16" rx="4" fill="rgba(78,85,89,0.3)" stroke="#4e5559" stroke-width="0.8"/>
  <text x="470" y="433" text-anchor="middle" fill="#949ca1" font-size="9" font-weight="bold">— TODO</text>
  <text x="50" y="455" fill="#7f8c8d" font-size="11">"Zavrsi nalog" (finish order) -> order completion, final status, closure trigger in SAP</text>

  <!-- SAP module targets -->
  <text x="680" y="130" text-anchor="middle" fill="#a9dfbf" font-size="10">PP-CO</text>
  <text x="680" y="180" text-anchor="middle" fill="#a9dfbf" font-size="10">PM</text>
  <text x="680" y="270" text-anchor="middle" fill="#555c61" font-size="10">HR / CO</text>
  <text x="680" y="360" text-anchor="middle" fill="#555c61" font-size="10">MM-IM</text>
  <text x="680" y="445" text-anchor="middle" fill="#555c61" font-size="10">PP-SFC</text>
</svg>