<svg width="64" height="60" viewBox="0 0 64 60" fill="none" xmlns="http://www.w3.org/2000/svg">
<path d="M62.9333 23.5716H61.8667V5.35726C61.865 3.93698 61.3025 2.57536 60.3027 1.57107C59.3029 0.566781 57.9473 0.00182335 56.5333 0.00012207H33.0667C31.6527 0.00182335 30.2971 0.566781 29.2973 1.57107C28.2975 2.57536 27.735 3.93698 27.7333 5.35726V10.7144H5.33333C3.91937 10.7161 2.5638 11.2811 1.56397 12.2854C0.564141 13.2896 0.00169371 14.6513 0 16.0716V41.7858C0.00169371 43.2061 0.564141 44.5677 1.56397 45.572C2.5638 46.5763 3.91937 47.1413 5.33333 47.143H18.1333V53.5715H16C15.7171 53.5715 15.4458 53.6844 15.2458 53.8854C15.0457 54.0863 14.9333 54.3588 14.9333 54.643V57.8573H12.8V60.0001H38.4V57.8573H36.2667V54.643C36.2667 54.3588 36.1543 54.0863 35.9543 53.8854C35.7542 53.6844 35.4829 53.5715 35.2 53.5715H33.0667V47.143H42.6667V55.7144C42.6667 56.5669 43.0038 57.3845 43.6039 57.9872C44.204 58.59 45.018 58.9287 45.8667 58.9287H56.5333C57.382 58.9287 58.196 58.59 58.7961 57.9872C59.3962 57.3845 59.7333 56.5669 59.7333 55.7144V36.4287C59.7333 35.5762 59.3962 34.7586 58.7961 34.1558C58.196 33.5531 57.382 33.2144 56.5333 33.2144H51.2V30.0001H60.8C61.6487 30.0001 62.4626 29.6615 63.0627 29.0587C63.6629 28.4559 64 27.6383 64 26.7858V24.643C64 24.3588 63.8876 24.0863 63.6876 23.8854C63.4875 23.6844 63.2162 23.5716 62.9333 23.5716ZM29.8667 5.35726C29.8667 4.50478 30.2038 3.68722 30.8039 3.08442C31.404 2.48163 32.218 2.14298 33.0667 2.14298H56.5333C57.382 2.14298 58.196 2.48163 58.7961 3.08442C59.3962 3.68722 59.7333 4.50478 59.7333 5.35726V23.5716H29.8667V5.35726ZM34.1333 57.8573H17.0667V55.7144H34.1333V57.8573ZM30.9333 53.5715H20.2667V47.143H30.9333V53.5715ZM5.33333 45.0001C4.48464 45.0001 3.67071 44.6615 3.07059 44.0587C2.47048 43.4559 2.13333 42.6383 2.13333 41.7858V40.7144H42.6667V45.0001H5.33333ZM56.5333 56.7858H45.8667C45.5838 56.7858 45.3125 56.673 45.1124 56.472C44.9124 56.2711 44.8 55.9986 44.8 55.7144V54.643H57.6V55.7144C57.6 55.9986 57.4876 56.2711 57.2876 56.472C57.0875 56.673 56.8162 56.7858 56.5333 56.7858ZM57.6 36.4287V52.5001H44.8V36.4287C44.8 36.1445 44.9124 35.872 45.1124 35.6711C45.3125 35.4701 45.5838 35.3573 45.8667 35.3573H56.5333C56.8162 35.3573 57.0875 35.4701 57.2876 35.6711C57.4876 35.872 57.6 36.1445 57.6 36.4287ZM49.0667 33.2144H45.8667C45.018 33.2144 44.204 33.5531 43.6039 34.1558C43.0038 34.7586 42.6667 35.5762 42.6667 36.4287V38.5715H2.13333V16.0716C2.13333 15.2191 2.47048 14.4015 3.07059 13.7987C3.67071 13.1959 4.48464 12.8573 5.33333 12.8573H27.7333V23.5716H26.6667C26.3838 23.5716 26.1125 23.6844 25.9124 23.8854C25.7124 24.0863 25.6 24.3588 25.6 24.643V26.7858C25.6 27.6383 25.9371 28.4559 26.5373 29.0587C27.1374 29.6615 27.9513 30.0001 28.8 30.0001H49.0667V33.2144ZM61.8667 26.7858C61.8667 27.07 61.7543 27.3425 61.5543 27.5435C61.3542 27.7444 61.0829 27.8573 60.8 27.8573H28.8C28.5171 27.8573 28.2458 27.7444 28.0458 27.5435C27.8457 27.3425 27.7333 27.07 27.7333 26.7858V25.7144H61.8667V26.7858Z" fill="#F22E0D"/>
<path d="M44.8001 17.143C45.3892 17.143 45.8667 16.6633 45.8667 16.0716C45.8667 15.4798 45.3892 15.0001 44.8001 15.0001C44.211 15.0001 43.7334 15.4798 43.7334 16.0716C43.7334 16.6633 44.211 17.143 44.8001 17.143Z" fill="#F22E0D"/>
<path d="M44.7999 11.7858C43.6683 11.7858 42.583 12.2373 41.7829 13.041C40.9827 13.8448 40.5332 14.9348 40.5332 16.0715H42.6665C42.6665 15.5032 42.8913 14.9581 43.2914 14.5563C43.6915 14.1544 44.2341 13.9286 44.7999 13.9286C45.3657 13.9286 45.9083 14.1544 46.3084 14.5563C46.7084 14.9581 46.9332 15.5032 46.9332 16.0715H49.0665C49.0665 14.9348 48.617 13.8448 47.8169 13.041C47.0167 12.2373 45.9315 11.7858 44.7999 11.7858Z" fill="#F22E0D"/>
<path d="M51.2005 48.2145C51.7896 48.2145 52.2671 47.7348 52.2671 47.143C52.2671 46.5513 51.7896 46.0716 51.2005 46.0716C50.6114 46.0716 50.1338 46.5513 50.1338 47.143C50.1338 47.7348 50.6114 48.2145 51.2005 48.2145Z" fill="#F22E0D"/>
<path d="M48.1836 44.1129L49.6919 45.6279C50.0981 45.2381 50.6383 45.0206 51.2001 45.0206C51.7619 45.0206 52.3022 45.2381 52.7084 45.6279L54.2167 44.1129C53.4043 43.3331 52.3239 42.8978 51.2001 42.8978C50.0764 42.8978 48.996 43.3331 48.1836 44.1129Z" fill="#F22E0D"/>
<path d="M44.7997 8.57153C42.8201 8.5738 40.9222 9.36471 39.5224 10.7707C38.1227 12.1768 37.3353 14.0831 37.333 16.0715H39.4663C39.4663 14.6507 40.0282 13.2881 41.0284 12.2835C42.0286 11.2788 43.3852 10.7144 44.7997 10.7144C46.2142 10.7144 47.5707 11.2788 48.5709 12.2835C49.5711 13.2881 50.133 14.6507 50.133 16.0715H52.2663C52.2641 14.0831 51.4767 12.1768 50.0769 10.7707C48.6771 9.36471 46.7793 8.5738 44.7997 8.57153Z" fill="#F22E0D"/>
<path d="M51.1999 41.7858C51.9007 41.7842 52.5948 41.9221 53.2422 42.1915C53.8896 42.4609 54.4774 42.8565 54.9717 43.3555L56.4799 41.8405C55.7866 41.1439 54.9634 40.5914 54.0575 40.2145C53.1515 39.8375 52.1805 39.6435 51.1999 39.6435C50.2193 39.6435 49.2483 39.8375 48.3424 40.2145C47.4364 40.5914 46.6133 41.1439 45.9199 41.8405L47.4282 43.3555C47.9225 42.8565 48.5103 42.4609 49.1577 42.1915C49.805 41.9221 50.4992 41.7842 51.1999 41.7858Z" fill="#F22E0D"/>
</svg>
