<svg width="64" height="60" viewBox="0 0 64 60" fill="none" xmlns="http://www.w3.org/2000/svg">
<path d="M52.4132 7.99505H1.04409C0.766353 7.9926 0.500811 7.87888 0.305273 7.67865C0.109734 7.47842 2.96716e-05 7.20789 4.01727e-05 6.92595V1.06911C-0.00116931 0.929149 0.0249428 0.790337 0.0768695 0.66068C0.128796 0.531023 0.205508 0.413091 0.302578 0.313691C0.399648 0.214292 0.515152 0.135395 0.642423 0.0815539C0.769694 0.0277131 0.906211 -5.38412e-06 1.04409 7.84453e-10H52.4132C52.6926 7.84453e-10 52.9605 0.112639 53.158 0.313135C53.3555 0.513631 53.4665 0.785561 53.4665 1.06911V6.92595C53.4641 7.20874 53.3523 7.47926 53.1553 7.67923C52.9583 7.87921 52.6918 7.99262 52.4132 7.99505ZM2.0973 5.82895H51.36V2.11032H2.0973V5.82895Z" fill="#F22E0D"/>
<path d="M31.2946 49.0394H1.07205C0.934169 49.0394 0.797653 49.0117 0.670382 48.9579C0.543112 48.904 0.427607 48.8251 0.330538 48.7257C0.233468 48.6263 0.156755 48.5084 0.104828 48.3788C0.0529014 48.2491 0.0267894 48.1103 0.0279988 47.9703V6.92598C0.0231125 6.78602 0.0456003 6.64647 0.094163 6.51539C0.142726 6.38431 0.2164 6.26429 0.310928 6.16229C0.405456 6.06028 0.518962 5.9783 0.644887 5.92109C0.770812 5.86388 0.906659 5.83258 1.04458 5.82898H52.4137C52.6931 5.82898 52.9609 5.94162 53.1585 6.14211C53.356 6.34261 53.4669 6.61454 53.4669 6.89808V26.9694C53.4644 27.1587 53.4132 27.344 53.3184 27.507C53.2236 27.6701 53.0886 27.8052 52.9266 27.899C52.7671 27.9947 52.5853 28.0452 52.4 28.0452C52.2147 28.0452 52.0329 27.9947 51.8734 27.899C50.359 26.9741 48.6881 26.3436 46.9462 26.0397C46.6936 26.008 46.4612 25.8837 46.2926 25.6903C46.1239 25.4968 46.0307 25.2475 46.0304 24.9892V22.7208H43.1089V24.9799C43.1086 25.2382 43.0153 25.4875 42.8467 25.681C42.678 25.8744 42.4456 25.9987 42.193 26.0304C40.0613 26.3881 38.0397 27.2408 36.2859 28.5219C36.0824 28.6677 35.8345 28.7356 35.5864 28.7135C35.3382 28.6914 35.1058 28.5807 34.9305 28.4011L33.3552 26.8113L31.2671 28.931L32.9156 30.5207C33.078 30.701 33.174 30.9328 33.1873 31.1768C33.2007 31.4207 33.1306 31.6619 32.9889 31.8594C31.7296 33.6437 30.8929 35.6988 30.5436 37.865C30.5105 38.1205 30.3875 38.3553 30.1974 38.5262C30.0072 38.697 29.7626 38.7923 29.5087 38.7946H27.2741V41.7881H29.5087C29.7626 41.7904 30.0072 41.8857 30.1974 42.0566C30.3875 42.2274 30.5105 42.4622 30.5436 42.7178C30.818 44.3918 31.3823 46.0033 32.2104 47.4776C32.3047 47.6395 32.3544 47.8241 32.3544 48.0122C32.3544 48.2002 32.3047 48.3848 32.2104 48.5467C32.1113 48.7008 31.9753 48.8268 31.8151 48.913C31.6549 48.9991 31.4758 49.0427 31.2946 49.0394ZM2.09778 46.9012H29.5728C29.1722 45.9425 28.8655 44.946 28.657 43.9263H26.23C26.0914 43.9276 25.9539 43.9008 25.8255 43.8475C25.6972 43.7942 25.5806 43.7155 25.4826 43.616C25.3845 43.5164 25.307 43.3981 25.2545 43.2678C25.202 43.1375 25.1756 42.998 25.1768 42.8572V37.7255C25.1768 37.442 25.2878 37.17 25.4853 36.9695C25.6828 36.769 25.9507 36.6564 26.23 36.6564H28.6387C29.0411 34.795 29.7634 33.0201 30.7726 31.4131L29.0691 29.684C28.875 29.481 28.7664 29.2092 28.7664 28.9263C28.7664 28.6434 28.875 28.3716 29.0691 28.1686L32.65 24.543C32.7471 24.4435 32.8626 24.3645 32.99 24.3106C33.1173 24.2567 33.2539 24.2289 33.3918 24.2289C33.5298 24.2289 33.6664 24.2567 33.7937 24.3106C33.9211 24.3645 34.0366 24.4435 34.1337 24.543L35.8371 26.2814C37.423 25.254 39.1745 24.5176 41.0116 24.106V21.6331C41.0164 21.3512 41.1308 21.0826 41.3297 20.8859C41.5287 20.6891 41.7962 20.5801 42.074 20.5826H47.1385C47.4099 20.5898 47.6681 20.703 47.8592 20.8988C48.0504 21.0945 48.1596 21.3576 48.1643 21.6331V24.0781C49.265 24.3318 50.3364 24.7026 51.3605 25.1844V7.99508H2.09778V46.9012Z" fill="#F22E0D"/>
<path d="M47.1192 59.9999H42.073C41.9351 59.9999 41.7986 59.9722 41.6713 59.9183C41.544 59.8645 41.4285 59.7856 41.3315 59.6862C41.2344 59.5868 41.1577 59.4689 41.1057 59.3392C41.0538 59.2096 41.0277 59.0708 41.0289 58.9308V56.4858C39.1936 56.0732 37.4428 55.3403 35.8545 54.3197L34.1327 56.0303C34.0361 56.1306 33.9207 56.2102 33.7933 56.2645C33.6659 56.3188 33.529 56.3466 33.3909 56.3463C33.2525 56.3477 33.1154 56.3203 32.9878 56.266C32.8603 56.2116 32.745 56.1314 32.649 56.0303L29.0681 52.4046C28.874 52.2016 28.7654 51.9298 28.7654 51.6469C28.7654 51.364 28.874 51.0922 29.0681 50.8893L30.7807 49.1601C30.6434 48.937 30.5151 48.7139 30.3869 48.4907C29.5806 47.074 28.9908 45.5412 28.6377 43.9447H26.229C26.0904 43.946 25.9529 43.9192 25.8245 43.8659C25.6962 43.8126 25.5796 43.7339 25.4816 43.6343C25.3835 43.5348 25.306 43.4165 25.2535 43.2862C25.201 43.1559 25.1746 43.0164 25.1758 42.8756V37.7253C25.1758 37.4418 25.2868 37.1698 25.4843 36.9693C25.6818 36.7688 25.9497 36.6562 26.229 36.6562H28.6377C29.0401 34.7948 29.7624 33.0199 30.7716 31.4129L29.0681 29.6838C28.874 29.4808 28.7654 29.209 28.7654 28.9261C28.7654 28.6432 28.874 28.3714 29.0681 28.1684L32.649 24.5428C32.7461 24.4433 32.8616 24.3643 32.989 24.3104C33.1163 24.2565 33.2529 24.2287 33.3909 24.2287C33.5288 24.2287 33.6654 24.2565 33.7927 24.3104C33.9201 24.3643 34.0356 24.4433 34.1327 24.5428L35.8361 26.2812C37.422 25.2538 39.1735 24.5174 41.0106 24.1058V21.633C41.0154 21.351 41.1298 21.0824 41.3287 20.8857C41.5277 20.6889 41.7952 20.5799 42.073 20.5824H47.1375C47.4089 20.5896 47.6671 20.7028 47.8582 20.8986C48.0494 21.0943 48.1586 21.3574 48.1633 21.633V24.078C49.851 24.4694 51.4674 25.1282 52.9531 26.0302L53.3286 26.2626L55.0412 24.5242C55.1383 24.4247 55.2538 24.3457 55.3811 24.2918C55.5085 24.2379 55.6451 24.2101 55.783 24.2101C55.921 24.2101 56.0576 24.2379 56.1849 24.2918C56.3122 24.3457 56.4278 24.4247 56.5248 24.5242L60.1058 28.1406C60.2041 28.2399 60.2821 28.358 60.3353 28.488C60.3885 28.618 60.4159 28.7574 60.4159 28.8982C60.4159 29.039 60.3885 29.1784 60.3353 29.3085C60.2821 29.4385 60.2041 29.5566 60.1058 29.6559L58.4023 31.3851C59.4099 32.9928 60.1322 34.7674 60.5362 36.6283H62.954C63.2317 36.6308 63.4973 36.7445 63.6928 36.9447C63.8884 37.145 63.9981 37.4155 63.9981 37.6974V42.8291C64.0055 42.9729 63.984 43.1168 63.9349 43.2519C63.8858 43.3869 63.8101 43.5105 63.7124 43.6149C63.6147 43.7192 63.497 43.8023 63.3667 43.8591C63.2363 43.9158 63.0959 43.9449 62.954 43.9447H60.5362C60.1323 45.8086 59.4101 47.5862 58.4023 49.1973L60.1058 50.9171C60.2999 51.1201 60.4085 51.3919 60.4085 51.6748C60.4085 51.9577 60.2999 52.2295 60.1058 52.4325L56.534 56.0303C56.334 56.2273 56.0663 56.3376 55.7876 56.3376C55.5089 56.3376 55.2412 56.2273 55.0412 56.0303L53.3377 54.3197C51.7494 55.3403 49.9986 56.0732 48.1633 56.4858V58.9308C48.1645 59.0708 48.1384 59.2096 48.0864 59.3392C48.0345 59.4689 47.9578 59.5868 47.8607 59.6862C47.7637 59.7856 47.6482 59.8645 47.5209 59.9183C47.3936 59.9722 47.2571 59.9999 47.1192 59.9999ZM43.1079 57.8896H46.066V55.6026C46.0663 55.3443 46.1595 55.095 46.3282 54.9015C46.4968 54.7081 46.7293 54.5838 46.9818 54.5521C49.1129 54.1975 51.1345 53.348 52.889 52.0699C53.0922 51.9204 53.3414 51.8495 53.5916 51.8699C53.8418 51.8904 54.0765 52.0009 54.2536 52.1815L55.8105 53.7712L57.8986 51.6609L56.3234 50.0619C56.1478 49.8827 56.0404 49.6462 56.0203 49.3943C56.0002 49.1425 56.0686 48.8915 56.2135 48.686C57.4727 46.9016 58.3095 44.8465 58.6587 42.6804C58.6921 42.4232 58.8163 42.1872 59.0084 42.0161C59.2005 41.8451 59.4473 41.7508 59.7028 41.7507H61.9283V38.7944H59.6753C59.4198 38.7944 59.173 38.7001 58.9809 38.529C58.7889 38.358 58.6646 38.1219 58.6313 37.8648C58.2804 35.6991 57.4438 33.6443 56.186 31.8592C56.0412 31.6536 55.9727 31.4027 55.9929 31.1508C56.013 30.8989 56.1203 30.6625 56.2959 30.4833L57.8711 28.8936L55.8105 26.8111L54.2444 28.4009C54.0691 28.5805 53.8367 28.6912 53.5885 28.7133C53.3403 28.7354 53.0925 28.6675 52.889 28.5217C52.5776 28.2986 52.257 28.1034 51.9731 27.9081C50.4464 26.9814 48.7631 26.3509 47.0093 26.0488C46.7568 26.0171 46.5243 25.8928 46.3557 25.6994C46.187 25.5059 46.0938 25.2566 46.0935 24.9983V22.7206H43.1079V24.9797C43.1076 25.238 43.0143 25.4873 42.8457 25.6808C42.677 25.8742 42.4446 25.9985 42.192 26.0302C40.0603 26.3879 38.0387 27.2406 36.2849 28.5217C36.0814 28.6675 35.8335 28.7354 35.5854 28.7133C35.3372 28.6912 35.1048 28.5805 34.9295 28.4009L33.3542 26.8111L31.2661 28.9308L32.9146 30.5205C33.077 30.7008 33.173 30.9326 33.1863 31.1766C33.1997 31.4205 33.1296 31.6617 32.9879 31.8592C31.7286 33.6435 30.8919 35.6986 30.5426 37.8648C30.5095 38.1203 30.3865 38.3552 30.1964 38.526C30.0062 38.6968 29.7616 38.7921 29.5077 38.7944H27.2731V41.7879H29.5077C29.7616 41.7902 30.0062 41.8855 30.1964 42.0564C30.3865 42.2272 30.5095 42.462 30.5426 42.7176C30.817 44.3916 31.3813 46.0031 32.2094 47.4774C32.4567 47.9051 32.704 48.3234 32.9879 48.7232C33.1296 48.9207 33.1997 49.1618 33.1863 49.4058C33.173 49.6497 33.077 49.8815 32.9146 50.0619L31.3028 51.6609L33.3909 53.7712L34.9661 52.1815C35.1416 52.0016 35.3748 51.8914 35.6235 51.871C35.8721 51.8505 36.1197 51.9211 36.3215 52.0699C38.076 53.348 40.0976 54.1975 42.2287 54.5521C42.4812 54.5838 42.7137 54.7081 42.8823 54.9015C43.051 55.095 43.1442 55.3443 43.1445 55.6026L43.1079 57.8896ZM44.5915 50.1269C42.6817 50.1269 40.8147 49.5524 39.2264 48.4759C37.6381 47.3995 36.3997 45.8693 35.6676 44.0788C34.9355 42.2883 34.7426 40.3176 35.1132 38.4159C35.4837 36.5141 36.4012 34.7665 37.7498 33.3937C39.0983 32.0209 40.8173 31.0846 42.6898 30.703C44.5622 30.3215 46.504 30.5117 48.27 31.2498C50.036 31.9878 51.5469 33.2406 52.6119 34.8498C53.6769 36.459 54.2481 38.3526 54.2536 40.2912C54.2487 42.8909 53.2292 45.3827 51.4183 47.221C49.6073 49.0592 47.1526 50.0941 44.5915 50.0991V50.1269ZM44.5915 32.6494C43.0934 32.6476 41.6285 33.0973 40.3825 33.9416C39.1365 34.7859 38.1655 35.9868 37.5926 37.3919C37.0197 38.7971 36.8707 40.3433 37.1646 41.8345C37.4584 43.3257 38.1818 44.6947 39.2431 45.7681C40.3043 46.8414 41.6557 47.5708 43.1257 47.8636C44.5958 48.1564 46.1185 47.9996 47.5006 47.413C48.8828 46.8263 50.0622 45.8363 50.8895 44.5684C51.7167 43.3005 52.1544 41.8119 52.1471 40.2912C52.1447 38.2578 51.3479 36.3084 49.9315 34.8706C48.515 33.4328 46.5946 32.624 44.5915 32.6215V32.6494Z" fill="#F22E0D"/>
<path d="M44.5917 50.0993C42.6808 50.0993 40.8127 49.5241 39.2238 48.4464C37.6349 47.3687 36.3965 45.8369 35.6652 44.0447C34.9339 42.2526 34.7425 40.2805 35.1153 38.378C35.4882 36.4754 36.4084 34.7278 37.7596 33.3562C39.1109 31.9845 40.8325 31.0504 42.7068 30.672C44.581 30.2935 46.5237 30.4878 48.2893 31.2301C50.0548 31.9724 51.5638 33.2295 52.6255 34.8424C53.6871 36.4553 54.2538 38.3516 54.2538 40.2914C54.249 42.8911 53.2294 45.3829 51.4185 47.2212C49.6076 49.0595 47.1528 50.0944 44.5917 50.0993ZM44.5917 32.6217C43.0948 32.6199 41.631 33.0689 40.3855 33.912C39.1401 34.7551 38.1691 35.9543 37.5954 37.3578C37.0217 38.7613 36.8711 40.3061 37.1627 41.7965C37.4543 43.287 38.175 44.6561 39.2335 45.7305C40.292 46.805 41.6407 47.5366 43.109 47.8326C44.5773 48.1286 46.0991 47.9757 47.4817 47.3934C48.8644 46.811 50.0458 45.8253 50.8763 44.5611C51.7068 43.2969 52.1492 41.811 52.1474 40.2914C52.145 38.258 51.3481 36.3087 49.9317 34.8708C48.5153 33.433 46.5949 32.6242 44.5917 32.6217Z" fill="#F22E0D"/>
<path d="M12.3365 10.059H4.45117V12.1972H12.3365V10.059Z" fill="#F22E0D"/>
<path d="M16.2838 17.7473H8.39844V19.8855H16.2838V17.7473Z" fill="#F22E0D"/>
<path d="M28.0975 13.8891H12.3359V16.0273H28.0975V13.8891Z" fill="#F22E0D"/>
<path d="M12.3365 21.6146H4.45117V23.7528H12.3365V21.6146Z" fill="#F22E0D"/>
<path d="M16.2838 29.3029H8.39844V31.4411H16.2838V29.3029Z" fill="#F22E0D"/>
<path d="M28.0975 25.4447H12.3359V27.5829H28.0975V25.4447Z" fill="#F22E0D"/>
<path d="M14.5255 16.0551H12.6114V13.9169H14.5255V16.0551ZM10.6973 16.0551H8.7832V13.9169H10.6973V16.0551Z" fill="#F22E0D"/>
<path d="M14.5255 27.5829H12.6114V25.4447H14.5255V27.5829ZM10.6973 27.5829H8.7832V25.4447H10.6973V27.5829Z" fill="#F22E0D"/>
<path d="M45.5631 3.06793H43.7314V4.92725H45.5631V3.06793Z" fill="#F22E0D"/>
<path d="M48.0176 3.06793H46.1768V4.92725H48.0176V3.06793Z" fill="#F22E0D"/>
<path d="M50.4537 3.06793H48.6221V4.92725H50.4537V3.06793Z" fill="#F22E0D"/>
</svg>
