<svg width="66" height="64" viewBox="0 0 66 64" fill="none" xmlns="http://www.w3.org/2000/svg">
<path d="M28.4393 18.8031H28.4478C32.1385 18.8031 35.1395 15.7894 35.1372 12.1215C35.1353 10.3572 34.4298 8.66526 33.1749 7.41541C31.9199 6.16556 30.2174 5.45935 28.4394 5.45105H28.4369C26.6525 5.4513 24.9414 6.15491 23.6798 7.40709C22.4183 8.65927 21.7097 10.3574 21.71 12.128C21.7102 13.8986 22.4193 15.5966 23.6812 16.8484C24.9431 18.1002 26.6544 18.8034 28.4388 18.8031H28.4393ZM24.9735 8.66826C25.4272 8.21306 25.9675 7.85168 26.5629 7.60503C27.1583 7.35838 27.7971 7.23136 28.4424 7.23133H28.4446C29.7531 7.23095 31.0081 7.7464 31.9337 8.66427C32.8592 9.58214 33.3794 10.8272 33.3797 12.1257C33.3801 13.4241 32.8607 14.6695 31.9357 15.5879C31.0107 16.5063 29.7559 17.0225 28.4474 17.0228H28.4393C27.4673 17.015 26.5193 16.7228 25.7139 16.1828C24.9086 15.6428 24.2816 14.879 23.9116 13.9871C23.5416 13.0952 23.445 12.1149 23.6339 11.1687C23.8228 10.2226 24.2888 9.35283 24.9735 8.66826Z" fill="#F22E0D" stroke="#F22E0D" stroke-width="0.5"/>
<path d="M44.9201 14.3524H45.0125C45.8876 14.3504 46.7534 14.1748 47.5591 13.8359C48.3647 13.497 49.094 13.0017 49.7039 12.379C50.6271 11.438 51.2514 10.2485 51.4992 8.95846C51.7471 7.66837 51.6075 6.33447 51.098 5.1224C50.5884 3.91034 49.7312 2.87351 48.6329 2.14069C47.5346 1.40787 46.2435 1.01135 44.9201 1.00037H44.9169C41.2262 1.00037 38.2249 4.01412 38.2266 7.68212C38.2286 11.3435 41.2306 14.3524 44.9201 14.3524ZM44.9232 2.78064H44.9253C46.2284 2.78857 47.4753 3.30812 48.3935 4.22569C49.3116 5.14327 49.8263 6.38423 49.825 7.67729C49.8315 8.31364 49.7113 8.945 49.4713 9.53515C49.2313 10.1253 48.8763 10.6626 48.4265 11.1163C47.9818 11.5731 47.4496 11.9372 46.8612 12.1872C46.2728 12.4372 45.64 12.5681 44.9999 12.5722H44.9203C43.6118 12.5718 42.357 12.0556 41.4321 11.1372C40.5071 10.2188 39.9876 8.97344 39.988 7.675C39.9884 6.37656 40.5085 5.13146 41.434 4.21359C42.3596 3.29572 43.6146 2.78027 44.9232 2.78064Z" fill="#F22E0D" stroke="#F22E0D" stroke-width="0.5"/>
<path d="M11.958 14.3524H11.9616C15.6455 14.3524 18.5567 11.4302 18.6849 7.71353V7.69128C18.6849 4.03001 15.6527 1.00037 11.958 1.00037H11.955C8.26425 1.00037 5.26311 4.01412 5.26465 7.68276C5.2667 11.3439 8.26899 14.3524 11.958 14.3524ZM11.961 2.78064H11.9633C13.2644 2.78946 14.5093 3.30803 15.4269 4.22342C16.3445 5.13881 16.8605 6.37688 16.8625 7.66801C16.8066 10.4011 14.6552 12.5722 11.9611 12.5722H11.958C10.6495 12.5718 9.39476 12.0556 8.46977 11.1372C7.54479 10.2188 7.02536 8.97337 7.02575 7.67494C7.02614 6.3765 7.54632 5.1314 8.47186 4.21354C9.39739 3.29568 10.6525 2.78025 11.961 2.78064Z" fill="#F22E0D" stroke="#F22E0D" stroke-width="0.5"/>
<path d="M55.8481 30.47V25.3856C55.8552 24.1586 55.6183 22.9423 55.1509 21.8064C54.6835 20.6705 53.9948 19.6373 53.1243 18.7659C52.2538 17.8945 51.2185 17.2022 50.0779 16.7285C48.9372 16.2548 47.7136 16.0092 46.4771 16.0056H43.5188C41.6473 16.0134 39.819 16.565 38.2598 17.5922C36.7006 18.6194 35.4787 20.0773 34.7449 21.7857C33.2924 20.9185 31.6299 20.459 29.9348 20.4562H26.9617C25.2705 20.4578 23.6111 20.9129 22.1591 21.7734C21.4339 20.0681 20.2194 18.6121 18.6667 17.5866C17.114 16.561 15.2916 16.0112 13.4264 16.0056H10.4815C5.29007 16.0056 1 20.201 1 25.3561V34.5537C1.01133 34.7969 1.11616 35.0266 1.29291 35.1954C1.46966 35.3642 1.7049 35.4594 1.95023 35.4614H17.5313V39.0357C17.5319 39.152 17.5557 39.2671 17.6013 39.3742C17.647 39.4814 17.7135 39.5785 17.7972 39.66C17.8809 39.7415 17.98 39.8057 18.0888 39.849C18.1976 39.8922 18.314 39.9137 18.4312 39.9121H31.1161C30.4544 41.7644 30.118 43.7156 30.1215 45.6808C30.1215 55.2287 37.9496 63.0004 47.5715 63.0004C57.1935 63.0004 64.9999 55.2343 64.9999 45.6864C65.0096 42.5648 64.1629 39.4994 62.5507 36.8188C60.9385 34.1382 58.6215 31.9435 55.8481 30.47ZM43.5188 17.7858H46.4756C47.4765 17.7893 48.4668 17.9887 49.3899 18.3727C50.3129 18.7567 51.1505 19.3178 51.8545 20.0237C52.5586 20.7296 53.1153 21.5665 53.4927 22.4863C53.8702 23.4062 54.0609 24.3909 54.054 25.384V29.6292C52.1318 28.8192 49.8397 28.372 47.5335 28.372C44.6658 28.3666 41.842 29.0699 39.3168 30.4184V29.8678C39.3243 28.6398 39.0865 27.4225 38.6172 26.2862C38.1479 25.1499 37.4564 24.1171 36.5826 23.2475C36.4651 23.1305 36.3529 23.0132 36.2304 22.9032C36.7725 21.4133 37.7617 20.1239 39.0649 19.209C40.368 18.294 41.9225 17.7973 43.5188 17.7858ZM2.7941 33.6811V25.3575C2.7941 21.1844 6.27759 17.7858 10.4831 17.7858H13.4246C15.0134 17.7943 16.5608 18.2888 17.856 19.2018C19.1513 20.1148 20.1312 21.402 20.6623 22.8878C20.5414 22.9957 20.4214 23.1089 20.3054 23.2236C19.4245 24.0888 18.7256 25.1192 18.2494 26.2547C17.7732 27.3902 17.5291 28.6084 17.5313 29.8383V33.6811H2.7941ZM19.3254 38.1318V29.8398C19.3278 27.8282 20.1326 25.8992 21.5639 24.4745C22.9951 23.0498 24.9365 22.2452 26.9638 22.2365H29.9333C30.9352 22.2384 31.9268 22.4382 32.8502 22.824C33.7736 23.2099 34.6104 23.7743 35.3118 24.4842C36.0194 25.1927 36.5789 26.0328 36.9583 26.9564C37.3377 27.88 37.5295 28.8689 37.5227 29.8663V31.5166C35.0951 33.2022 33.1467 35.4807 31.8658 38.1318H19.3254ZM47.5715 61.223C44.4751 61.223 41.4481 60.3119 38.8735 58.6048C36.2989 56.8978 34.2922 54.4714 33.1072 51.6327C31.9223 48.794 31.6122 45.6703 32.2163 42.6567C32.8204 39.6431 34.3115 36.875 36.5011 34.7023C38.6906 32.5296 41.4803 31.05 44.5173 30.4506C47.5543 29.8512 50.7022 30.1589 53.5629 31.3347C56.4237 32.5106 58.8688 34.5018 60.5891 37.0566C62.3094 39.6114 63.2276 42.6151 63.2276 45.6877C63.2229 49.8065 61.5719 53.7553 58.6368 56.6677C55.7018 59.5801 51.7223 61.2184 47.5715 61.223Z" fill="#F22E0D" stroke="#F22E0D" stroke-width="0.5"/>
<path d="M56.8428 43.1061C56.6378 42.4049 56.3508 41.7299 55.9879 41.0947L57.1068 39.7556C57.2489 39.5855 57.3222 39.369 57.3124 39.1483C57.3026 38.9275 57.2104 38.7183 57.0538 38.5613L54.8022 36.304C54.6444 36.1459 54.4327 36.0521 54.2087 36.0411C53.9848 36.0302 53.7648 36.1029 53.5922 36.2449L52.2371 37.3597C51.596 37.0018 50.9162 36.717 50.2107 36.5106L50.04 34.7507C50.0189 34.5294 49.916 34.3236 49.7511 34.1731C49.5863 34.0226 49.3711 33.938 49.147 33.9356H45.9177C45.6936 33.938 45.4785 34.0226 45.3136 34.1731C45.1487 34.3236 45.0458 34.5294 45.0247 34.7507L44.8542 36.5042C44.1462 36.7076 43.4646 36.9925 42.8234 37.353L41.4727 36.2431C41.3007 36.1018 41.0817 36.0292 40.8587 36.0396C40.6356 36.0499 40.4245 36.1424 40.2665 36.2991L37.9871 38.5567C37.8288 38.7135 37.7352 38.9232 37.7247 39.1449C37.7141 39.3666 37.7874 39.5842 37.9302 39.7551L39.052 41.0978C38.692 41.733 38.4052 42.4065 38.197 43.1054L36.4188 43.2754C36.1961 43.2964 35.9891 43.3986 35.8379 43.5624C35.6868 43.7261 35.6022 43.9396 35.6006 44.1616V47.3616C35.6023 47.5835 35.6868 47.797 35.838 47.9607C35.9891 48.1243 36.1961 48.2265 36.4188 48.2475L38.1905 48.4171C38.3963 49.1184 38.684 49.7935 39.0478 50.4285L37.9297 51.7676C37.7871 51.9385 37.7139 52.1561 37.7245 52.3777C37.7351 52.5993 37.8288 52.8091 37.9871 52.9657L40.2668 55.2231C40.4248 55.3797 40.6361 55.4721 40.8592 55.4823C41.0822 55.4925 41.3011 55.4198 41.4731 55.2783L42.8282 54.1635C43.4693 54.5214 44.1491 54.8062 44.8547 55.0125L45.0254 56.7725C45.0464 56.9938 45.1493 57.1995 45.3142 57.3501C45.4791 57.5006 45.6943 57.5852 45.9183 57.5876H49.1477C49.3717 57.5852 49.5869 57.5006 49.7518 57.3501C49.9167 57.1995 50.0196 56.9938 50.0406 56.7725L50.2113 55.0186C50.9193 54.8152 51.6009 54.5303 52.2421 54.1697L53.5928 55.2797C53.7648 55.421 53.9837 55.4936 54.2068 55.4833C54.4298 55.4729 54.641 55.3804 54.799 55.2238L57.0784 52.9661C57.2367 52.8094 57.3303 52.5996 57.3408 52.3779C57.3514 52.1562 57.278 51.9386 57.1353 51.7677L56.0134 50.425C56.3736 49.7895 56.6605 49.1158 56.8687 48.4166L58.6199 48.2474C58.8423 48.226 59.0488 48.1236 59.1996 47.9601C59.3504 47.7965 59.4348 47.5833 59.4364 47.3616V44.1616C59.4348 43.9397 59.3502 43.7262 59.199 43.5625C59.0479 43.3989 58.8409 43.2967 58.6182 43.2757L56.8428 43.1061ZM57.6423 46.5542L56.077 46.7054C55.8883 46.7236 55.7102 46.8003 55.568 46.9247C55.4258 47.0491 55.3268 47.2148 55.2849 47.3983C55.0736 48.332 54.6943 49.2202 54.1654 50.0203C54.0608 50.1793 54.0102 50.3674 54.021 50.557C54.0318 50.7466 54.1035 50.9279 54.2255 51.0742L55.2319 52.2792L54.1091 53.3913L52.8934 52.3912C52.7452 52.2693 52.5614 52.1979 52.3692 52.1876C52.177 52.1773 51.9866 52.2286 51.826 52.334C51.0244 52.8608 50.1304 53.2338 49.1902 53.4337C49.0033 53.4757 48.8345 53.5752 48.708 53.718C48.5814 53.8608 48.5035 54.0396 48.4854 54.229L48.3328 55.8074H46.7321L46.5791 54.2286C46.5608 54.0397 46.4826 53.8614 46.3558 53.7194C46.2289 53.5774 46.0599 53.479 45.8731 53.4384C44.9315 53.2305 44.0357 52.8549 43.2291 52.3299C43.069 52.2276 42.8802 52.1784 42.6901 52.1896C42.5 52.2008 42.3184 52.2718 42.1716 52.3922L40.956 53.3913L39.8334 52.2793L40.8402 51.0742C40.9634 50.9268 41.0354 50.744 41.0455 50.5529C41.0557 50.3617 41.0035 50.1724 40.8966 50.013C40.3647 49.2192 39.9875 48.3335 39.7844 47.4017C39.7424 47.2171 39.6426 47.0503 39.4994 46.9252C39.3561 46.8001 39.1768 46.7231 38.9868 46.7051L37.3947 46.5533V44.9699L38.9868 44.8173C39.1757 44.7993 39.354 44.7227 39.4964 44.5983C39.6388 44.4738 39.738 44.308 39.7798 44.1244C39.9912 43.1907 40.3705 42.3025 40.8995 41.5024C41.004 41.3433 41.0546 41.1553 41.0438 40.9656C41.0329 40.776 40.9613 40.5948 40.8392 40.4485L39.833 39.2435L40.9557 38.1318L42.1715 39.132C42.3197 39.2539 42.5034 39.3253 42.6957 39.3356C42.8879 39.3459 43.0784 39.2946 43.239 39.1892C44.0405 38.6623 44.9345 38.2893 45.8746 38.0895C46.0615 38.0475 46.2303 37.948 46.3569 37.8052C46.4834 37.6624 46.5613 37.4836 46.5794 37.2942L46.7321 35.7158H48.3328L48.4858 37.2946C48.504 37.4835 48.5822 37.6618 48.7091 37.8038C48.8359 37.9458 49.0049 38.0442 49.1918 38.0848C50.1334 38.2927 51.0293 38.6683 51.8359 39.1934C51.996 39.2957 52.1847 39.3448 52.3748 39.3336C52.5649 39.3223 52.7465 39.2514 52.8932 39.131L54.1049 38.1348L55.207 39.2398L54.1969 40.4487C54.0738 40.5961 54.0018 40.7789 53.9916 40.9701C53.9815 41.1612 54.0337 41.3505 54.1405 41.5099C54.6724 42.3037 55.0497 43.1895 55.2527 44.1212C55.2948 44.3059 55.3946 44.4727 55.5378 44.5977C55.681 44.7228 55.8604 44.7998 56.0503 44.8178L57.6425 44.9704L57.6423 46.5542Z" fill="#F22E0D" stroke="#F22E0D" stroke-width="0.5"/>
<path d="M47.5205 39.1464C46.2023 39.148 44.9142 39.5374 43.819 40.2653C42.7238 40.9932 41.8706 42.027 41.3673 43.2359C40.8641 44.4448 40.7333 45.7746 40.9914 47.0573C41.2496 48.34 41.8852 49.5179 42.8179 50.4423C43.7506 51.3666 44.9385 51.9958 46.2314 52.2504C47.5244 52.5049 48.8644 52.3734 50.0821 51.8725C51.2997 51.3716 52.3404 50.5237 53.0726 49.436C53.8047 48.3483 54.1955 47.0696 54.1955 45.7616C54.1924 44.0066 53.4878 42.3246 52.2364 41.0844C50.9851 39.8443 49.2891 39.1473 47.5205 39.1464ZM47.5205 50.5966C46.5571 50.5949 45.6159 50.31 44.8157 49.7777C44.0156 49.2454 43.3924 48.4897 43.0249 47.6061C42.6574 46.7224 42.5621 45.7506 42.7511 44.8132C42.94 43.8759 43.4048 43.0152 44.0865 42.3398C44.7683 41.6645 45.6365 41.2048 46.5814 41.0189C47.5264 40.8331 48.5057 40.9293 49.3955 41.2955C50.2853 41.6617 51.0458 42.2814 51.5808 43.0763C52.1159 43.8712 52.4014 44.8057 52.4014 45.7616C52.3988 47.0446 51.8834 48.2741 50.9684 49.1805C50.0534 50.0869 48.8134 50.5962 47.5205 50.5966Z" fill="#F22E0D" stroke="#F22E0D" stroke-width="0.5"/>
</svg>
