<svg width="64" height="64" viewBox="0 0 64 64" fill="none" xmlns="http://www.w3.org/2000/svg">
<path d="M60.8 35.2001H42.6667V33.0668H43.7333C46.4733 33.0669 49.1083 32.0126 51.0919 30.1224C53.0755 28.2322 54.2556 25.6511 54.3876 22.9143C54.5196 20.1775 53.5933 17.4949 51.8008 15.4226C50.0082 13.3503 47.4869 12.0473 44.7597 11.7838C44.5041 8.57514 43.049 5.58054 40.6842 3.3967C38.3195 1.21286 35.2188 0.00012207 32 0.00012207C28.7811 0.00012207 25.6805 1.21286 23.3157 3.3967C20.951 5.58054 19.4959 8.57514 19.2403 11.7838C17.0662 11.9974 15.0097 12.8718 13.3476 14.2894C11.6854 15.707 10.4974 17.5997 9.9434 19.7129C5.97334 20.2451 0 21.5434 0 24.5334V58.6668C0 60.3921 1.95364 61.7553 5.8067 62.7186C9.1123 63.5449 13.49 64.0001 18.1333 64.0001C22.7767 64.0001 27.1544 63.5449 30.46 62.7186C34.313 61.7553 36.2667 60.3921 36.2667 58.6668V33.0668H40.5333V35.2001H38.4V37.3334H60.8C61.0828 37.3337 61.3539 37.4462 61.5539 37.6462C61.7538 37.8462 61.8663 38.1173 61.8666 38.4001V42.6668C61.8663 42.9496 61.7538 43.2207 61.5539 43.4206C61.3539 43.6206 61.0828 43.7331 60.8 43.7334H38.4V45.8668H40.5333V48.0001H38.4V50.1334H60.8C61.0828 50.1337 61.3539 50.2462 61.5539 50.4462C61.7538 50.6462 61.8663 50.9173 61.8666 51.2001V55.4668C61.8663 55.7495 61.7538 56.0207 61.5539 56.2206C61.3539 56.4206 61.0828 56.5331 60.8 56.5334H38.4V58.6668H60.8C61.6484 58.6658 62.4617 58.3283 63.0617 57.7284C63.6616 57.1285 63.999 56.3151 64 55.4668V51.2001C63.999 50.3517 63.6616 49.5383 63.0617 48.9384C62.4617 48.3385 61.6484 48.0011 60.8 48.0001H42.6667V45.8668H60.8C61.6484 45.8658 62.4617 45.5283 63.0617 44.9284C63.6616 44.3285 63.999 43.5152 64 42.6668V38.4001C63.999 37.5517 63.6616 36.7383 63.0617 36.1384C62.4617 35.5385 61.6484 35.2011 60.8 35.2001ZM4.12441 23.2347C5.50348 22.6944 7.38515 22.2431 9.61233 21.9142C9.60506 22.0754 9.6 22.2372 9.6 22.4001C9.59874 24.1104 10.0114 25.7955 10.8028 27.3117C8.40486 27.0188 6.29212 26.5833 4.72129 26.0496C2.59388 25.3269 2.13333 24.6598 2.13333 24.5334C2.13333 24.4306 2.48763 23.8761 4.12441 23.2347ZM34.1333 58.6668C34.1333 58.6761 33.821 59.6793 29.9426 60.6489C26.8013 61.4343 22.6073 61.8668 18.1333 61.8668C13.6593 61.8668 9.46536 61.4343 6.32409 60.6489C2.44564 59.6793 2.13333 58.6761 2.13333 58.6668V52.858C3.05938 53.3612 4.28383 53.8036 5.8067 54.1852C9.1123 55.0116 13.49 55.4668 18.1333 55.4668C22.7767 55.4668 27.1544 55.0116 30.46 54.1852C31.9826 53.8046 33.207 53.3622 34.1333 52.858V58.6668ZM34.1333 50.1334C34.1333 50.1428 33.821 51.146 29.9426 52.1156C26.8013 52.9009 22.6073 53.3334 18.1333 53.3334C13.6593 53.3334 9.46536 52.9009 6.32409 52.1156C2.44564 51.146 2.13333 50.1428 2.13333 50.1334V44.3246C3.05938 44.8279 4.28383 45.2703 5.8067 45.6519C9.1123 46.4783 13.49 46.9334 18.1333 46.9334C22.7767 46.9334 27.1544 46.4783 30.46 45.6519C31.9826 45.2712 33.207 44.8288 34.1333 44.3246V50.1334ZM34.1333 41.6001C34.1333 41.6095 33.821 42.6127 29.9426 43.5823C26.8013 44.3676 22.6073 44.8001 18.1333 44.8001C13.6593 44.8001 9.46536 44.3676 6.32409 43.5823C2.44564 42.6127 2.13333 41.6095 2.13333 41.6001V35.7913C3.05938 36.2946 4.28383 36.737 5.8067 37.1186C9.1123 37.9449 13.49 38.4001 18.1333 38.4001C22.7767 38.4001 27.1544 37.9449 30.46 37.1186C31.9826 36.7379 33.207 36.2955 34.1333 35.7913V41.6001ZM29.9426 35.0489C26.8013 35.8343 22.6073 36.2668 18.1333 36.2668C13.6593 36.2668 9.46536 35.8343 6.32409 35.0489C2.44564 34.0793 2.13333 33.0761 2.13333 33.0668V27.2608C4.90937 28.7737 9.7232 29.3905 12.4298 29.6267C13.4267 30.7114 14.6381 31.5773 15.9871 32.1695C17.3361 32.7617 18.7934 33.0672 20.2667 33.0668H34.1333C34.1333 33.0761 33.821 34.0793 29.9426 35.0489ZM20.2667 30.9334C18.0917 30.9337 15.9987 30.1033 14.4155 28.6121C12.8322 27.1208 11.8783 25.0812 11.7485 22.9101C11.6188 20.739 12.3231 18.6003 13.7174 16.9311C15.1118 15.2618 17.091 14.1881 19.2505 13.9294C19.4166 15.7844 19.9845 17.581 20.9149 19.1944C21.8452 20.8078 23.1157 22.1993 24.638 23.2722L25.8663 21.528C24.4021 20.4992 23.2202 19.1186 22.4296 17.5132C21.6389 15.9079 21.2648 14.1295 21.3417 12.3416C21.4187 10.5538 21.9441 8.81408 22.8698 7.28261C23.7954 5.75113 25.0915 4.47714 26.6386 3.57794C28.1858 2.67873 29.9343 2.18321 31.7232 2.137C33.5121 2.09078 35.2838 2.49536 36.8753 3.31348C38.4668 4.1316 39.827 5.33697 40.8304 6.81861C41.8339 8.30025 42.4485 10.0105 42.6177 11.792C39.9976 12.0709 37.573 13.3083 35.81 15.2664C34.047 17.2246 33.07 19.7652 33.0667 22.4001H35.2C35.2 20.7124 35.7005 19.0625 36.6381 17.6592C37.5758 16.2559 38.9085 15.1622 40.4678 14.5163C42.027 13.8705 43.7428 13.7015 45.3981 14.0307C47.0534 14.36 48.5739 15.1727 49.7673 16.3661C50.9607 17.5595 51.7734 19.08 52.1027 20.7353C52.4319 22.3906 52.263 24.1064 51.6171 25.6657C50.9712 27.2249 49.8775 28.5576 48.4742 29.4953C47.0709 30.433 45.4211 30.9334 43.7333 30.9334H20.2667Z" fill="#F22E0D"/>
</svg>
