<svg width="64" height="60" viewBox="0 0 64 60" fill="none" xmlns="http://www.w3.org/2000/svg">
<path d="M59.8033 26.5748C58.3794 26.5748 57.2553 27.4029 56.7307 28.6074H51.7096C51.4848 26.0478 50.4356 24.0152 50.0609 23.3376C50.1358 22.5095 50.0609 21.7567 49.8361 21.0039C49.8361 20.9286 49.8361 20.9286 49.7611 20.8533H52.2342L54.5574 19.1218C55.082 19.4982 55.7564 19.7241 56.4309 19.7241C58.3045 19.7241 59.8033 18.2184 59.8033 16.3364C59.8033 14.4543 58.3045 12.9487 56.4309 12.9487C54.5574 12.9487 53.0585 14.4543 53.0585 16.3364C53.0585 16.7128 53.1335 17.0139 53.2084 17.3151L51.4848 18.6701H48.4871C47.2881 17.1645 45.7143 16.2611 44.815 15.8094C44.6651 14.4543 44.1405 13.1745 43.3162 12.1206L49.8361 4.51706H57.4801C57.9297 5.79686 59.2037 6.77553 60.6276 6.77553C62.5012 6.77553 64 5.26988 64 3.38783C64 1.50577 62.5012 0.00012207 60.6276 0.00012207C59.2037 0.00012207 57.9297 0.978792 57.4801 2.25859H48.8618L41.6674 10.6149C40.6183 9.93739 39.3443 9.48569 37.9204 9.48569C35.3724 9.48569 33.1241 10.9161 31.9251 12.9487C30.726 10.9913 28.5527 9.71154 26.0796 9.71154C24.7307 9.71154 23.5316 10.088 22.4824 10.7655L15.1382 2.33387H6.51991C6.07026 1.05407 4.79625 0.0754039 3.37237 0.0754039C1.49883 0.0754039 0 1.58105 0 3.46311C0 5.34517 1.49883 6.85081 3.37237 6.85081C4.79625 6.85081 6.07026 5.87214 6.51991 4.59234H14.1639L20.7588 12.1959C19.8595 13.2498 19.26 14.5296 19.185 16.0353C18.3607 16.4117 16.9368 17.3151 15.7377 18.6701H12.5152L10.7916 17.3903C10.8665 17.0892 10.9415 16.7881 10.9415 16.4117C10.9415 14.5296 9.44262 13.024 7.56909 13.024C5.69555 13.024 4.19672 14.5296 4.19672 16.4117C4.19672 18.2937 5.69555 19.7994 7.56909 19.7994C8.24356 19.7994 8.91803 19.5735 9.44262 19.1971L11.7658 20.9286H14.3138C14.2389 21.0792 14.2389 21.1545 14.1639 21.305C13.9391 22.0578 13.8642 22.8859 13.9391 23.6388C13.5644 24.3163 12.5902 26.1984 12.2904 28.6827H7.26932C6.74473 27.4782 5.54567 26.6501 4.19672 26.6501C2.32318 26.6501 0.824356 28.1557 0.824356 30.0378C0.824356 31.9198 2.32318 33.4255 4.19672 33.4255C5.69555 33.4255 7.0445 32.3715 7.4192 30.9411H12.2904C12.4403 32.2962 12.9649 33.8019 14.0141 35.3075C13.6393 36.2109 13.4145 37.2649 13.4145 38.6199C13.4145 38.6952 13.4145 38.6952 13.4145 38.7705H9.51756L7.19438 40.502C6.66979 40.1256 5.99532 39.8997 5.32084 39.8997C3.44731 39.8997 1.94848 41.4054 1.94848 43.2874C1.94848 45.1695 3.44731 46.6752 5.32084 46.6752C7.19438 46.6752 8.69321 45.1695 8.69321 43.2874C8.69321 42.911 8.61827 42.6099 8.54333 42.3088L10.267 41.029H13.7143C14.0141 42.0076 14.5386 42.8358 15.2881 43.5133C16.637 44.7931 18.3607 45.0942 19.3349 45.1695C19.6347 46.374 20.2342 47.5033 21.0586 48.4066L14.9134 55.4832H8.99297C8.54333 54.2034 7.26932 53.2247 5.84543 53.2247C3.9719 53.2247 2.47307 54.7304 2.47307 56.6124C2.47307 58.4945 3.9719 60.0001 5.84543 60.0001C7.26932 60.0001 8.54333 59.0215 8.99297 57.7417H15.9625L22.8571 49.7617C23.8314 50.2887 24.8806 50.5145 26.0047 50.5145C26.2295 50.5145 26.5293 50.5145 26.7541 50.4393C28.6276 50.2134 30.2764 49.31 31.4005 47.8797C31.6253 47.5785 31.8501 47.2774 32 46.9763C32.1499 47.2021 32.2998 47.428 32.4496 47.6538C33.6487 49.0842 35.2974 49.9876 37.096 50.2134C37.3208 50.2134 37.6206 50.2887 37.8454 50.2887C38.8946 50.2887 39.9438 50.0629 40.8431 49.6112L47.8876 57.7417H54.8571C55.3068 59.0215 56.5808 60.0001 58.0047 60.0001C59.8782 60.0001 61.377 58.4945 61.377 56.6124C61.377 54.7304 59.8782 53.2247 58.0047 53.2247C56.5808 53.2247 55.3068 54.2034 54.8571 55.4832H48.9368L42.7166 48.2561C43.6159 47.3527 44.2904 46.2235 44.5902 44.9437C45.6394 44.8684 47.363 44.492 48.637 43.2874C49.3115 42.6852 49.7611 41.9324 50.1358 41.029H53.733L55.4567 42.3088C55.3817 42.6099 55.3068 42.911 55.3068 43.2874C55.3068 45.1695 56.8056 46.6752 58.6792 46.6752C60.5527 46.6752 62.0515 45.1695 62.0515 43.2874C62.0515 41.4054 60.5527 39.8997 58.6792 39.8997C58.0047 39.8997 57.3302 40.1256 56.8056 40.502L54.4824 38.7705H50.5855C50.5855 38.6199 50.5855 38.5447 50.5855 38.3941C50.5855 37.039 50.3607 35.9098 49.986 35.0817C50.9602 33.7266 51.4098 32.2962 51.6347 30.8659H56.5808C56.9555 32.2962 58.2295 33.3502 59.8033 33.3502C61.6768 33.3502 63.1756 31.8445 63.1756 29.9625C63.1756 28.0804 61.6768 26.5748 59.8033 26.5748ZM29.9016 46.6752C29.0773 47.7291 27.8782 48.3314 26.6042 48.4819C25.3302 48.6325 24.0562 48.2561 23.007 47.428C21.9578 46.5999 21.3583 45.3954 21.2084 44.1156C21.0585 42.8358 21.4333 41.556 22.2576 40.502C22.9321 39.6739 23.8314 39.0716 24.8806 38.8458C26.0047 41.3301 28.103 42.5346 28.103 42.5346C28.2529 42.6099 28.4028 42.6852 28.6276 42.6852C29.0023 42.6852 29.3021 42.5346 29.5269 42.1582C29.8267 41.7065 29.6019 41.029 29.1522 40.8031C28.9274 40.6526 24.356 37.9424 27.1288 32.1457C27.3536 31.6187 27.1288 31.0164 26.6792 30.7906C26.1546 30.5647 25.555 30.7906 25.3302 31.2423C24.281 33.4255 24.0562 35.3828 24.356 36.8885C22.9321 37.2649 21.6581 38.093 20.7588 39.2222C19.8595 40.3514 19.3349 41.7065 19.26 43.1369C18.5105 43.0616 17.5363 42.7605 16.7119 42.0077C15.8876 41.2548 15.5129 40.0503 15.5129 38.5447C15.5129 36.5873 16.1124 35.157 17.2365 34.3289C18.2108 33.576 19.3349 33.576 19.6347 33.6513C20.0094 33.9524 20.6089 33.8772 20.9087 33.5007C21.2834 33.1243 21.2834 32.4468 20.9087 32.0704C20.1593 31.3176 18.4356 31.4681 17.2365 31.9951C16.637 32.2209 15.9625 32.6726 15.2881 33.3502C13.9391 30.8659 14.3138 28.231 14.9134 26.4995C15.0632 26.8006 15.2131 27.1018 15.4379 27.3276C15.2131 28.1557 15.1382 28.9838 15.2881 29.8872V29.9625C15.2881 30.4142 15.5878 30.7906 16.0375 30.9411C16.1124 30.9411 16.1874 30.9411 16.2623 30.9411C16.7119 30.9411 17.1616 30.64 17.2365 30.1883C17.3115 29.9625 17.2365 29.7366 17.2365 29.5861C17.0867 28.9085 16.7119 26.7253 20.8337 24.9186C21.3583 24.6927 21.5831 24.0905 21.3583 23.5635C21.1335 23.0365 20.534 22.8107 20.0094 23.0365C18.5105 23.714 17.3115 24.5422 16.4871 25.4455C15.8876 24.1657 15.7377 23.0365 16.1124 21.9073C16.1874 21.5309 16.3372 21.2297 16.5621 20.9286H16.7119V20.6275C17.3864 19.5735 18.4356 18.8207 19.26 18.2937C19.9344 21.1545 22.4075 23.4129 25.4052 23.6388C25.63 24.4669 26.0047 25.3703 26.6792 26.1231C26.904 26.3489 27.1288 26.4242 27.4286 26.4242C27.6534 26.4242 27.9532 26.3489 28.103 26.1231C28.4778 25.7467 28.5527 25.0691 28.103 24.6927C26.5293 23.0365 27.5035 19.8747 27.5785 19.7994C27.7283 19.2724 27.5035 18.6701 26.9789 18.5196C26.4543 18.369 25.8548 18.5949 25.7049 19.1218C25.7049 19.1971 25.3302 20.2511 25.2553 21.5309C22.9321 21.1544 21.1335 19.1218 21.1335 16.6375C21.1335 13.9273 23.3068 11.7442 26.0047 11.7442C28.6276 11.7442 30.8009 13.8521 30.8759 16.4869C30.8759 16.5622 30.8759 16.6375 30.8759 16.7128V42.9863V43.0616C31.1007 44.4167 30.726 45.6965 29.9016 46.6752ZM46.8384 31.9198C45.5644 31.3928 43.8408 31.2423 43.1663 31.9951C42.7916 32.3715 42.7916 33.0491 43.1663 33.4255C43.541 33.8019 44.0656 33.8019 44.4403 33.576C44.74 33.5007 45.7892 33.576 46.8384 34.2536C47.9625 35.0817 48.5621 36.512 48.5621 38.4694C48.5621 39.975 48.1124 41.1043 47.363 41.9324C46.6136 42.6852 45.5644 42.911 44.815 43.0616C44.74 41.6312 44.2155 40.2762 43.3162 39.1469C42.4169 38.0177 41.1429 37.1896 39.719 36.8132C39.9438 35.2322 39.7939 33.3502 38.7447 31.167C38.5199 30.64 37.9204 30.4142 37.3958 30.7153C36.8712 30.9412 36.6464 31.5434 36.9461 32.0704C39.719 37.8671 35.1475 40.6526 34.9227 40.7278C34.4731 41.029 34.2482 41.6312 34.548 42.0829C34.7728 42.3841 35.0726 42.6099 35.4473 42.6099C35.5972 42.6099 35.822 42.5346 35.9719 42.4593C35.9719 42.4593 38.0703 41.1795 39.1944 38.7705C40.2436 38.9964 41.1429 39.5986 41.8173 40.4267C42.6417 41.4807 43.0164 42.7605 42.8665 44.0403C42.7166 45.3201 42.1171 46.5246 41.0679 47.3527C40.0187 48.1808 38.7447 48.5572 37.4707 48.4066C36.1967 48.2561 34.9977 47.6538 34.1733 46.5999C33.3489 45.5459 32.9742 44.2661 33.1241 42.9863V16.6375C33.1241 16.5622 33.1241 16.4869 33.1241 16.4117C33.1991 13.7768 35.3724 11.6689 37.9953 11.6689C40.6932 11.6689 42.8665 13.8521 42.8665 16.5622C42.8665 19.0465 41.0679 21.0792 38.7447 21.4556C38.6698 20.1758 38.37 19.1218 38.2951 19.0465C38.1452 18.5196 37.5457 18.2184 37.0211 18.4443C36.4965 18.5949 36.1967 19.1971 36.4216 19.7241C36.4216 19.7241 37.4707 22.8859 35.897 24.5422C35.5223 24.9186 35.5223 25.5961 35.897 25.9725C36.1218 26.1984 36.3466 26.2736 36.5714 26.2736C36.8712 26.2736 37.096 26.1984 37.3208 25.9725C37.9953 25.2197 38.445 24.3916 38.5948 23.4882C41.5925 23.2624 44.0656 21.0039 44.7401 18.1432C45.5644 18.6701 46.6136 19.423 47.2881 20.4769V21.0039H47.5878C47.7377 21.2297 47.8126 21.4556 47.8876 21.7567C48.1874 22.8107 48.1124 24.0152 47.5129 25.295C46.6885 24.3916 45.4895 23.5635 43.9906 22.8859C43.466 22.6601 42.8665 22.8859 42.6417 23.4129C42.4169 23.9399 42.6417 24.5422 43.1663 24.768C47.363 26.5748 46.9133 28.758 46.7635 29.4355C46.7635 29.5861 46.6885 29.8119 46.7635 30.0378C46.9133 30.4895 47.2881 30.7906 47.7377 30.7906C47.8126 30.7906 47.8876 30.7906 47.9625 30.7906C48.4122 30.7153 48.7119 30.2636 48.7119 29.8119V29.7366C48.8618 28.8332 48.8618 28.0051 48.5621 27.177C48.7119 26.8759 48.9368 26.6501 49.0117 26.3489C49.6112 28.1557 50.0609 30.7906 48.7119 33.1996C48.1124 32.5221 47.4379 32.1457 46.8384 31.9198Z" fill="#F22E0D"/>
</svg>
