<svg width="50" height="50" viewBox="0 0 50 50" fill="none" xmlns="http://www.w3.org/2000/svg">
<rect width="50" height="50" fill="white" fill-opacity="0.01"/>
<path d="M47.2784 39.5296H45.7721V29.9045C45.7721 27.6145 44.8783 25.4717 43.2741 23.8793C41.6699 22.2628 39.527 21.3812 37.2371 21.3812C36.6615 21.3812 36.086 21.4545 35.5228 21.577L20.7779 8.58467C20.8148 8.26639 20.8389 7.95991 20.8389 7.62933C20.8389 3.41698 17.4101 0 13.2095 0C9.00939 0 5.58021 3.42879 5.58021 7.62933C5.58021 8.84145 5.87389 9.99261 6.37615 11.0094L2.22468 22.2265C1.66142 23.7574 2.18778 25.4225 3.4614 26.3533V33.6152C3.4614 34.1662 3.91446 34.6192 4.46542 34.6192C5.01638 34.6192 5.46945 34.1662 5.46945 33.6152V27.0391C5.51865 27.0391 5.55504 27.0514 5.60423 27.0514C6.81635 27.0514 7.99204 26.4266 8.66552 25.3124L14.3966 15.7852L28.7124 31.4353V39.5179H23.5462C23.3258 39.5179 23.1177 39.5912 22.946 39.7136L11.5449 48.2C11.202 48.4573 11.055 48.9104 11.1898 49.3142C11.3246 49.7181 11.7043 50 12.1451 50H47.2911C47.842 50 48.2951 49.5469 48.2951 48.996V40.5096C48.2828 39.9709 47.8297 39.5297 47.2788 39.5297L47.2784 39.5296ZM36.3063 24.908C37.1392 25.643 37.6286 26.6594 37.6655 27.7859C37.7024 28.9001 37.298 29.9534 36.5144 30.7493C35.7307 31.5452 34.6898 31.9737 33.5756 31.9614C32.4614 31.9368 31.4328 31.4838 30.6732 30.6509L16.0884 14.695C17.913 13.9483 19.3823 12.5153 20.1784 10.7276L36.3063 24.908ZM13.2102 1.99563C16.3207 1.99563 18.8434 4.51832 18.8434 7.62881C18.8434 10.7393 16.3207 13.262 13.2102 13.262C10.0997 13.262 7.57704 10.7393 7.57704 7.62881C7.57704 4.51832 10.1119 1.99563 13.2102 1.99563ZM6.94057 24.2953C6.5121 25.0057 5.64236 25.2629 4.8956 24.9078C4.16064 24.5526 3.81777 23.7075 4.09965 22.9362L7.78574 12.9928C8.98606 14.2172 10.6021 15.0377 12.4026 15.2217L6.94057 24.2953ZM30.7097 33.1491C31.5672 33.639 32.5343 33.9327 33.5506 33.945H33.6608C35.2896 33.945 36.8082 33.3084 37.9594 32.1328C39.1351 30.9448 39.7352 29.3651 39.6737 27.6877C39.6127 26.0226 38.89 24.4916 37.6287 23.3891C39.233 23.487 40.7269 24.1241 41.8657 25.2629C43.1024 26.4873 43.776 28.1284 43.776 29.8797V39.5048H30.7097L30.7097 33.1491ZM46.2746 48.0159H15.158L23.877 41.5259H46.275L46.2746 48.0159Z" fill="#F22E0D"/>
<path d="M31.9956 27.4311C32.0935 27.529 32.1914 27.6028 32.3262 27.6515C32.4486 27.7007 32.5711 27.7371 32.7059 27.7371C32.8407 27.7371 32.9632 27.7125 33.0857 27.6515C33.2082 27.6023 33.3184 27.529 33.404 27.4311C33.5875 27.2477 33.6977 26.9904 33.6977 26.7331C33.6977 26.4635 33.5875 26.2185 33.404 26.0227C33.0488 25.6552 32.3631 25.6552 31.9956 26.0227C31.9587 26.0719 31.91 26.1206 31.8731 26.1698C31.8362 26.2308 31.7998 26.28 31.7875 26.3533C31.7629 26.4143 31.7383 26.4758 31.7265 26.5368C31.7142 26.61 31.7019 26.6715 31.7019 26.7325C31.7019 26.8673 31.7265 26.9898 31.7752 27.1123C31.8367 27.2353 31.91 27.3455 31.9956 27.4311L31.9956 27.4311Z" fill="#F22E0D"/>
</svg>
