<svg width="50" height="50" viewBox="0 0 50 50" fill="none" xmlns="http://www.w3.org/2000/svg">
<rect width="50" height="50" fill="white" fill-opacity="0.01"/>
<path d="M28.8075 43.1118H43.261C43.3938 42.7358 43.6108 42.3901 43.8979 42.1126C44.3694 41.6572 45.0186 41.3935 45.6764 41.3874H45.7098C46.6651 41.397 47.5876 41.9736 48.0098 42.8239C48.3589 43.5255 48.365 44.3889 48.0236 45.0956C47.5356 46.1087 46.3461 46.733 45.2046 46.5147C44.3252 46.3458 43.5682 45.6749 43.2587 44.8362H28.4496C28.2799 44.8196 28.1117 44.7846 27.9712 44.6914C27.9239 44.6595 27.8843 44.6198 27.8404 44.5837L19.2196 35.9617C19.111 35.8289 19.016 35.6857 18.9833 35.5202C18.9721 35.4652 18.9721 35.4082 18.9667 35.352V24.1425H16.3805C16.3158 24.1348 16.2512 24.1348 16.188 24.1209C15.9344 24.0632 15.7147 23.8854 15.6034 23.6544C15.5276 23.4974 15.5372 23.4493 15.518 23.2803V20.6937H13.2885L10.3443 23.6371V31.9022C10.3374 31.9661 10.3374 32.0316 10.3228 32.0947C10.185 32.7009 9.27438 33.025 8.80796 32.4403C8.72791 32.3387 8.67096 32.2206 8.64171 32.0947C8.62785 32.0316 8.62708 31.9661 8.62015 31.9022V23.2803C8.63747 23.1094 8.67173 22.9416 8.76602 22.8011C8.79719 22.7545 8.8376 22.7141 8.87301 22.671L12.3213 19.2214C12.4541 19.1129 12.5973 19.0189 12.7628 18.9858C12.8178 18.9747 12.8748 18.9747 12.931 18.9685H15.518V15.5197H11.5643L5.17181 21.9131V44.9933C5.80375 45.2235 6.3476 45.695 6.64001 46.3012C6.97638 46.9986 6.97638 47.8481 6.64001 48.5445C6.08043 49.7057 4.58491 50.3397 3.3175 49.812C2.48659 49.4663 1.86506 48.6592 1.74575 47.7677C1.63953 46.9717 1.92856 46.1338 2.50276 45.5726C2.77101 45.3113 3.09506 45.1115 3.44759 44.9872V21.5562C3.46414 21.3853 3.49916 21.2174 3.5923 21.0769C3.62424 21.0304 3.66388 20.99 3.70006 20.9461L10.5967 14.0485C10.7295 13.94 10.8727 13.8461 11.0382 13.8122C11.0932 13.8018 11.1502 13.8018 11.2063 13.7956H15.5175V10.3469H9.83893L4.91885 15.2676C5.25175 15.9635 5.2506 16.8099 4.91539 17.5043C4.3558 18.6655 2.86028 19.2995 1.59287 18.7717C0.766199 18.4276 0.147331 17.6285 0.0237827 16.744C-0.0889777 15.9369 0.204663 15.0859 0.789263 14.5212C1.26187 14.0658 1.91342 13.8021 2.56771 13.796H2.6012C2.97874 13.7995 3.35206 13.8926 3.69264 14.0573C3.69418 14.0546 3.69688 14.0512 3.69957 14.0489L8.87207 8.8757C9.00485 8.76715 9.14801 8.67208 9.31351 8.63937C9.36854 8.62821 9.4255 8.62821 9.48168 8.62282H15.5171V6.03623C15.5309 5.90767 15.5463 5.77757 15.6025 5.6621C15.6872 5.48619 15.8319 5.34224 16.0051 5.25949C16.1609 5.18366 16.2102 5.19328 16.3791 5.17404H18.9654V0.862274C18.9662 0.825323 18.9654 0.81647 18.9688 0.779519C19.0069 0.393068 19.3318 0.0543491 19.7232 0.00701208C19.8032 -0.00338058 19.8225 0.000853541 19.8482 0.000853541C19.8852 0.00239308 19.8948 0.00162331 19.931 0.00701208C20.3162 0.0535864 20.6472 0.386535 20.6853 0.779519C20.6888 0.81647 20.6888 0.825323 20.6895 0.862274V5.17404H24.1379V0.862274C24.1386 0.825323 24.1386 0.81647 24.1421 0.779519C24.179 0.393068 24.5043 0.0543491 24.8964 0.00701208C24.9765 -0.00338058 24.9957 0.000853541 25.0207 0.000853541C25.0577 0.00239308 25.0673 0.00162331 25.1042 0.00701208C25.4887 0.0535864 25.8197 0.386535 25.8586 0.779519C25.862 0.81647 25.8613 0.825323 25.862 0.862274V5.17404H29.3104V0.862274C29.3119 0.825323 29.3111 0.81647 29.3146 0.779519C29.3527 0.393068 29.6775 0.0543491 30.0689 0.00701208C30.149 -0.00338058 30.1682 0.000853541 30.194 0.000853541C30.2309 0.00239308 30.2398 0.00162331 30.2767 0.00701208C30.662 0.0535864 30.9929 0.386535 31.031 0.779519C31.0345 0.81647 31.0345 0.825323 31.0353 0.862274V5.17404H33.6215L33.8128 5.19559C33.9971 5.25949 34.1765 5.34917 34.2954 5.49813C34.3755 5.59974 34.4324 5.71792 34.4617 5.84378C34.4755 5.9069 34.4755 5.97157 34.4832 6.03623V8.62281H49.1396L49.3309 8.64437C49.3921 8.66592 49.4552 8.67978 49.5137 8.70826C49.8647 8.87723 50.0664 9.29641 49.9801 9.67669C49.9078 9.99308 49.6465 10.2537 49.3309 10.326C49.2689 10.3399 49.2031 10.3407 49.1396 10.3476H34.4832V13.7964H49.1396L49.3309 13.8179C49.3921 13.8395 49.4552 13.8541 49.5137 13.8818C50.0275 14.1301 50.1749 14.9353 49.6765 15.333C49.5757 15.4142 49.4575 15.4708 49.3309 15.4992C49.2689 15.5139 49.2031 15.5139 49.1396 15.5208H34.4832V18.9696H40.5178C40.574 18.9757 40.6298 18.9807 40.686 18.9869C40.7403 19.0034 40.7964 19.0146 40.848 19.0362C40.9877 19.0939 41.0127 19.1285 41.1274 19.2225L46.3007 24.3964C46.4092 24.5284 46.5031 24.6724 46.5362 24.8379C46.5474 24.893 46.5474 24.9499 46.5536 25.0061V34.6473C47.1759 34.874 47.7132 35.3344 48.008 35.9275C48.357 36.6292 48.3632 37.4914 48.0218 38.1993C47.5338 39.2115 46.3442 39.8367 45.2028 39.6177C44.1544 39.4168 43.2785 38.5011 43.1295 37.438C43.0168 36.632 43.3104 35.781 43.8958 35.2163C44.1605 34.9603 44.4819 34.7644 44.8294 34.642V25.363L40.1611 20.6952H34.4833V23.2818C34.4756 23.3457 34.4756 23.4111 34.4617 23.4731C34.404 23.7268 34.2262 23.9473 33.9953 24.0586C33.8382 24.1336 33.7901 24.1248 33.6212 24.144H31.0349V27.7499C31.6661 27.98 32.2107 28.4508 32.5031 29.0577C32.8395 29.7552 32.8395 30.6047 32.5031 31.301C32.0151 32.3133 30.8256 32.9392 29.6841 32.7201C28.6357 32.5184 27.7598 31.6035 27.6108 30.5404C27.4981 29.7344 27.7917 28.8822 28.3771 28.3175C28.6419 28.0623 28.9632 27.8664 29.31 27.7432V24.1436H25.8616V33.2709L30.53 37.9399H38.7941C38.858 37.9468 38.9234 37.9468 38.9865 37.9615C39.4837 38.0742 39.8097 38.6805 39.5711 39.1762C39.4591 39.4091 39.2393 39.585 38.9865 39.6427C38.9234 39.6566 38.858 39.6566 38.7941 39.6643H30.1732C30.0024 39.647 29.8346 39.6127 29.6941 39.5184C29.6475 39.4872 29.6071 39.4468 29.5632 39.4114L24.3907 34.2382C24.2822 34.1054 24.1883 33.9615 24.1544 33.7967C24.1441 33.7405 24.1441 33.684 24.1379 33.6278V24.1436H20.6896V34.9955L28.8062 43.1132L28.8075 43.1118ZM4.30467 46.5606C3.92174 46.5648 3.55728 46.8512 3.4703 47.228C3.37985 47.6203 3.60461 48.061 3.97562 48.218C4.45053 48.4189 5.07751 48.0949 5.16174 47.561C5.23833 47.0825 4.85386 46.573 4.32814 46.561H4.30505L4.30467 46.5606ZM45.6876 43.1118C45.3066 43.1153 44.9437 43.3982 44.854 43.7739C44.7609 44.1661 44.9841 44.6103 45.3582 44.7689C45.835 44.9706 46.4635 44.6423 46.5451 44.1057C46.6182 43.628 46.2295 43.1238 45.7096 43.1115H45.6872L45.6876 43.1118ZM45.6876 36.2143C45.3066 36.2177 44.9437 36.5006 44.854 36.8755C44.7609 37.2685 44.9841 37.7127 45.3582 37.8712C45.835 38.0729 46.4635 37.7434 46.5451 37.208C46.6182 36.7304 46.2295 36.225 45.7096 36.2138H45.6872L45.6876 36.2143ZM30.1691 29.3159C29.7881 29.3194 29.4252 29.6023 29.3355 29.978C29.2424 30.3702 29.4656 30.8144 29.8397 30.973C30.3165 31.1747 30.945 30.8444 31.0266 30.3109C31.0997 29.8333 30.711 29.3279 30.1911 29.3159H30.1688H30.1691ZM17.2428 22.4183H32.7613V6.89785H17.2428V22.4183ZM28.4499 18.9688H21.5532C21.5101 18.968 21.4997 18.9688 21.4566 18.9638C21.0729 18.9207 20.7404 18.5946 20.6961 18.2032C20.6919 18.1608 20.6919 18.1497 20.6911 18.1066V11.209C20.6919 11.1659 20.6919 11.1555 20.6961 11.1124C20.7392 10.7287 21.066 10.3961 21.4566 10.3518C21.4997 10.3476 21.5101 10.3476 21.5532 10.3468H28.4499C28.4664 10.3468 28.4826 10.3476 28.4992 10.3476C28.5415 10.3518 28.5527 10.3518 28.595 10.3587C28.9598 10.4207 29.2646 10.7371 29.307 11.1124C29.312 11.1555 29.3112 11.1659 29.312 11.209V18.1066C29.3112 18.1497 29.312 18.1608 29.307 18.2032C29.2639 18.5869 28.9379 18.9195 28.5465 18.9638C28.5042 18.9688 28.493 18.968 28.4499 18.9688V18.9688ZM22.4153 12.0712V17.2444H27.5878V12.0712H22.4153ZM2.58051 15.52C2.19873 15.5242 1.83658 15.8064 1.74768 16.182C1.65377 16.5743 1.87776 17.0192 2.25108 17.1771C2.72869 17.3788 3.35641 17.0493 3.43799 16.515C3.51111 16.0366 3.12587 15.532 2.60246 15.52H2.58014H2.58051Z" fill="#F22E0D"/>
</svg>
