<svg width="52" height="52" viewBox="0 0 52 52" fill="none" xmlns="http://www.w3.org/2000/svg">
<rect x="1" y="1" width="50" height="50" fill="white" fill-opacity="0.01"/>
<path d="M26.0005 6.24023C15.1063 6.24023 6.24011 15.1063 6.24011 26.0006C6.24011 36.8949 15.1062 45.761 26.0005 45.761C36.8948 45.761 45.7609 36.8949 45.7609 26.0006C45.7609 15.1063 36.8948 6.24023 26.0005 6.24023ZM26.0005 44.1461C15.994 44.1461 7.85407 36.0065 7.85407 25.9997C7.85407 15.9929 15.9937 7.85323 26.0005 7.85323C36.0073 7.85323 44.147 15.9929 44.147 25.9997C44.147 36.0065 36.0073 44.1461 26.0005 44.1461Z" fill="#F22E0D" stroke="#F22E0D" stroke-width="0.3"/>
<path d="M26.0005 1C12.2175 1 1.00049 12.217 1.00049 26C1.00049 39.783 12.2175 51 26.0005 51C39.7835 51 51.0005 39.783 51.0005 26C51.0005 12.217 39.7835 1 26.0005 1ZM26.0005 49.386C13.1052 49.386 2.61445 38.8953 2.61445 26C2.61445 13.1047 13.1052 2.61396 26.0005 2.61396C38.8958 2.61396 49.3865 13.1047 49.3865 26C49.3865 38.8953 38.8958 49.386 26.0005 49.386Z" fill="#F22E0D" stroke="#F22E0D" stroke-width="0.3"/>
<path d="M23.1443 12.5984H28.8579C29.3044 12.5984 29.6647 12.2378 29.6647 11.7916C29.6647 11.345 29.304 10.9848 28.8579 10.9848L23.1443 10.9844C22.6978 10.9844 22.3375 11.345 22.3375 11.7912C22.3371 12.2381 22.6978 12.5984 23.1443 12.5984Z" fill="#F22E0D" stroke="#F22E0D" stroke-width="0.3"/>
<path d="M28.8566 39.4014H23.1435C22.6969 39.4014 22.3367 39.762 22.3367 40.2082C22.3367 40.6548 22.6973 41.015 23.1435 41.015H28.857C29.3036 41.015 29.6638 40.6544 29.6638 40.2082C29.6638 39.7616 29.3032 39.4014 28.8566 39.4014H28.8566Z" fill="#F22E0D" stroke="#F22E0D" stroke-width="0.3"/>
<path d="M13.67 16.4189V23.7625H38.3309V16.4189H13.67ZM19.3997 22.1482H15.2841V18.0326H19.3997V22.1482ZM21.0835 22.1482V18.0326H25.1829V22.1482H21.0835ZM30.9181 22.1482H26.8186V18.0326H30.9181V22.1482ZM32.6019 18.0326H36.7174V22.1482H32.6019V18.0326Z" fill="#F22E0D" stroke="#F22E0D" stroke-width="0.3"/>
<path d="M33.7148 26.3496C31.1701 26.3496 29.099 28.4208 29.099 30.9654C29.099 33.5101 31.1701 35.5813 33.7148 35.5813C36.2595 35.5813 38.3306 33.5101 38.3306 30.9654C38.3306 28.4208 36.2595 26.3496 33.7148 26.3496ZM33.7148 33.9676C32.058 33.9676 30.7131 32.6226 30.7131 30.9658C30.7131 29.309 32.058 27.964 33.7148 27.964C35.3716 27.964 36.7166 29.309 36.7166 30.9658C36.7166 32.6226 35.3716 33.9676 33.7148 33.9676Z" fill="#F22E0D" stroke="#F22E0D" stroke-width="0.3"/>
<path d="M27.3618 34.7746C27.3618 34.328 27.0011 33.9678 26.555 33.9678H14.4772C14.0306 33.9678 13.6703 34.3284 13.6703 34.7746C13.6703 35.2212 14.031 35.5814 14.4772 35.5814H26.555C27.0015 35.5814 27.3622 35.2212 27.3622 34.7746H27.3618Z" fill="#F22E0D" stroke="#F22E0D" stroke-width="0.3"/>
<path d="M14.4771 31.7732H26.5548C27.0014 31.7732 27.3617 31.4126 27.3617 30.9664C27.3617 30.5198 27.001 30.1596 26.5548 30.1596L14.4771 30.1592C14.0305 30.1592 13.6702 30.5198 13.6702 30.966C13.6702 31.4126 14.0305 31.7732 14.4771 31.7732Z" fill="#F22E0D" stroke="#F22E0D" stroke-width="0.3"/>
<path d="M14.4771 27.9636H26.5548C27.0014 27.9636 27.3617 27.603 27.3617 27.1568C27.3617 26.7102 27.001 26.35 26.5548 26.35L14.4771 26.3496C14.0305 26.3496 13.6702 26.7102 13.6702 27.1564C13.6702 27.603 14.0305 27.9636 14.4771 27.9636Z" fill="#F22E0D" stroke="#F22E0D" stroke-width="0.3"/>
</svg>
