<svg width="50" height="50" viewBox="0 0 50 50" fill="none" xmlns="http://www.w3.org/2000/svg">
<rect width="50" height="50" fill="white" fill-opacity="0.01"/>
<path d="M42.7087 38.5597H7.2915C3.27098 38.5597 0 35.1905 0 31.048C0 26.9057 3.27089 23.5354 7.2915 23.5354H7.34553C7.84956 18.6915 11.8376 14.9065 16.6667 14.9065C18.0243 14.9065 19.3539 15.2091 20.5762 15.7901C22.3672 10.7623 27.0126 7.35547 32.2916 7.35547C39.1841 7.35547 44.7915 13.1442 44.7915 20.2612C44.7915 21.4335 44.6355 22.5943 44.3261 23.7282C47.5969 24.4827 50 27.4709 50 31.0487C50 35.1909 46.7291 38.5601 42.7085 38.5601L42.7087 38.5597ZM7.2915 25.6153C4.41989 25.6153 2.08299 28.0522 2.08299 31.0475C2.08299 34.042 4.41951 36.4789 7.2915 36.4789H42.7077C45.5793 36.4789 47.9162 34.042 47.9162 31.0475C47.9162 28.1201 45.7176 25.739 42.9103 25.6274C42.5763 25.6142 42.2683 25.4414 42.0832 25.1622C41.8984 24.8838 41.8595 24.5333 41.9774 24.2205C42.4625 22.9399 42.7081 21.607 42.7081 20.2601C42.7081 14.2914 38.0354 9.43478 32.2917 9.43478C27.5313 9.43478 23.385 12.787 22.209 17.5853C22.1281 17.9166 21.8905 18.1856 21.5731 18.3086C21.2557 18.4305 20.8975 18.392 20.6153 18.2011C19.4334 17.4069 18.0683 16.9862 16.6665 16.9862C12.646 16.9862 9.37503 20.3901 9.37503 24.5749C9.37503 24.8817 9.24166 25.222 9.00626 25.4189C8.77163 25.617 8.46218 25.7521 8.16029 25.6974C7.83951 25.6415 7.55575 25.6151 7.29126 25.6151L7.2915 25.6153Z" fill="#F22E0D"/>
<path d="M22.9166 37.5186H25V42.7195H22.9166V37.5186Z" fill="#F22E0D"/>
<path d="M23.9583 50.0001C21.6607 50.0001 19.7916 48.1341 19.7916 45.8394C19.7916 43.5447 21.6607 41.6787 23.9583 41.6787C26.256 41.6787 28.1251 43.5447 28.1251 45.8394C28.1251 48.1345 26.256 50.0001 23.9583 50.0001ZM23.9583 43.7595C22.8093 43.7595 21.875 44.6929 21.875 45.8398C21.875 46.9868 22.8094 47.9202 23.9583 47.9202C25.1074 47.9202 26.0417 46.9868 26.0417 45.8398C26.0417 44.6929 25.1073 43.7595 23.9583 43.7595Z" fill="#F22E0D"/>
<path d="M37.5 46.8803H27.0836C26.5081 46.8803 26.0418 46.4151 26.0418 45.84C26.0418 45.265 26.5081 44.7998 27.0836 44.7998H37.5C38.0754 44.7998 38.5417 45.265 38.5417 45.84C38.5417 46.4151 38.0755 46.8803 37.5 46.8803Z" fill="#F22E0D"/>
<path d="M20.8331 46.8803H10.4167C9.84127 46.8803 9.37497 46.4151 9.37497 45.84C9.37497 45.265 9.84122 44.7998 10.4167 44.7998H20.8331C21.4086 44.7998 21.8749 45.265 21.8749 45.84C21.8749 46.4151 21.4086 46.8803 20.8331 46.8803Z" fill="#F22E0D"/>
<path d="M1.04203 12.4817C0.466586 12.4817 0.000289917 12.0166 0.000289917 11.4415C0.000289917 5.13255 5.14041 0 11.4585 0C12.0339 0 12.5002 0.465195 12.5002 1.04023C12.5002 1.61526 12.0339 2.08045 11.4585 2.08045C6.28932 2.08045 2.08358 6.2797 2.08358 11.4417C2.08358 12.0167 1.61695 12.4819 1.04184 12.4819L1.04203 12.4817Z" fill="#F22E0D"/>
<path d="M7.2915 13.5225C6.71605 13.5225 6.24976 13.0573 6.24976 12.4823C6.24976 9.04065 9.05326 6.24121 12.4999 6.24121C13.0753 6.24121 13.5416 6.70641 13.5416 7.28144C13.5416 7.85642 13.0754 8.32166 12.4999 8.32166C10.2023 8.32166 8.33314 10.1877 8.33314 12.4824C8.33314 13.057 7.86689 13.5226 7.2914 13.5226L7.2915 13.5225Z" fill="#F22E0D"/>
</svg>
