<svg width="50" height="50" viewBox="0 0 50 50" fill="none" xmlns="http://www.w3.org/2000/svg">
<rect width="50" height="50" fill="white" fill-opacity="0.01"/>
<path d="M49.6653 23.2063L25.6857 0.287804C25.2829 -0.0959347 24.65 -0.0959347 24.2472 0.287804L0.267652 23.2063C-0.0976613 23.6116 -0.0878918 24.2297 0.290051 24.6236C0.667584 25.0175 1.2854 25.0533 1.7061 24.7062L24.9663 2.47527L48.2265 24.7062C48.6329 25.1103 49.2898 25.1103 49.6963 24.7062C49.8963 24.5056 50.0059 24.2325 49.9998 23.9497C49.9941 23.6665 49.8731 23.3983 49.665 23.2062L49.6653 23.2063Z" fill="#F22E0D"/>
<path d="M17.6682 45.833H8.28489V26.0398C8.28489 25.4644 7.81816 24.998 7.2423 24.998C6.66643 24.998 6.19971 25.4644 6.19971 26.0398V46.8748C6.19971 47.1511 6.30967 47.416 6.50516 47.6113C6.70064 47.8067 6.96577 47.9165 7.2423 47.9165H17.6682C18.2441 47.9165 18.7108 47.4502 18.7108 46.8748C18.7108 46.2994 18.2441 45.833 17.6682 45.833Z" fill="#F22E0D"/>
<path d="M42.6904 24.9982C42.1145 24.9982 41.6478 25.4645 41.6478 26.0399V45.8332H27.9065C27.5758 44.8989 26.8215 44.1766 25.873 43.8864C24.9249 43.5966 23.8949 43.7728 23.0975 44.3625C22.3001 44.9517 21.8297 45.8839 21.8297 46.8749C21.8297 47.8658 22.3001 48.798 23.0975 49.3872C23.8949 49.9769 24.9249 50.1531 25.873 49.8633C26.8215 49.5732 27.5757 48.8509 27.9065 47.9165H42.6904C42.9669 47.9165 43.232 47.8067 43.4275 47.6113C43.623 47.416 43.733 47.1511 43.733 46.8748V26.0398C43.733 25.7635 43.623 25.4986 43.4275 25.3033C43.232 25.1079 42.9669 24.998 42.6904 24.998V24.9982ZM24.9663 47.9167C24.5448 47.9167 24.1644 47.6627 24.0032 47.2737C23.8419 46.8843 23.9311 46.4362 24.2292 46.1384C24.5273 45.8405 24.9757 45.7514 25.3654 45.9126C25.7548 46.0737 26.0089 46.4538 26.0089 46.875C26.0089 47.1513 25.8989 47.4162 25.7034 47.6115C25.508 47.8068 25.2428 47.9167 24.9663 47.9167L24.9663 47.9167Z" fill="#F22E0D"/>
<path d="M18.5648 27.0819H22.1618L25.0289 34.7388C25.1816 35.1473 25.5726 35.4171 26.0088 35.4159H31.3675C31.7087 36.7368 32.6756 37.8066 33.9556 38.2811C35.2352 38.7556 36.6667 38.5737 37.7871 37.7948C38.9079 37.016 39.5758 35.7382 39.5758 34.3741C39.5758 33.0101 38.9079 31.7324 37.7871 30.9535C36.6667 30.1746 35.2352 29.9927 33.9556 30.4672C32.6756 30.9416 31.7087 32.0115 31.3675 33.3324H26.7279L23.8608 25.6755C23.7081 25.267 23.3171 24.9972 22.8809 24.9984H18.5648C18.2235 23.6775 17.2567 22.6077 15.9767 22.1332C14.6971 21.6587 13.2655 21.8406 12.1452 22.6195C11.0244 23.3983 10.3565 24.6761 10.3565 26.0401C10.3565 27.4042 11.0244 28.6819 12.1452 29.4608C13.2655 30.2397 14.6971 30.4216 15.9767 29.9471C17.2567 29.4726 18.2236 28.4028 18.5648 27.0819ZM35.3922 32.2906C35.9453 32.2906 36.4756 32.51 36.8666 32.901C37.2579 33.2917 37.4775 33.8215 37.4775 34.3742C37.4775 34.9268 37.2579 35.4567 36.8666 35.8473C36.4756 36.2384 35.9453 36.4577 35.3922 36.4577C34.8391 36.4577 34.3089 36.2384 33.9179 35.8473C33.5265 35.4567 33.307 34.9268 33.307 34.3742C33.307 33.8215 33.5265 33.2917 33.9179 32.901C34.3089 32.51 34.8391 32.2906 35.3922 32.2906ZM12.4552 26.0401C12.4552 25.4875 12.6748 24.9577 13.0661 24.567C13.4571 24.1759 13.9874 23.9566 14.5405 23.9566C15.0936 23.9566 15.6238 24.1759 16.0148 24.567C16.4062 24.9577 16.6257 25.4875 16.6257 26.0401C16.6257 26.5928 16.4062 27.1226 16.0148 27.5133C15.6238 27.9043 15.0936 28.1237 14.5405 28.1237C13.9874 28.1237 13.4571 27.9043 13.0661 27.5133C12.6748 27.1226 12.4552 26.5928 12.4552 26.0401Z" fill="#F22E0D"/>
</svg>
