<svg width="50" height="50" viewBox="0 0 50 50" fill="none" xmlns="http://www.w3.org/2000/svg">
<rect width="50" height="50" fill="white" fill-opacity="0.01"/>
<path d="M15.4453 4.24029C18.7012 4.24029 21.8241 5.41411 24.239 7.54628L25.0018 8.2195L25.7646 7.54628C28.1795 5.41421 31.3023 4.24029 34.5583 4.24029C38.0743 4.24029 41.3801 5.58484 43.8665 8.02617C46.3676 10.4816 47.6539 13.6922 47.7162 16.9265C47.7162 17.5456 48.2272 18.0477 48.8581 18.0477C49.489 18.0477 50 17.546 50 16.9265C49.9384 13.1177 48.4254 9.33329 45.4797 6.44239C42.5628 3.5777 38.684 2 34.558 2C31.073 2 27.7162 3.14751 25.0015 5.24956C22.2868 3.14789 18.9304 2 15.4449 2C11.3192 2 7.44039 3.57761 4.52327 6.44239C0.111826 10.7734 -1.09055 17.1061 0.994018 22.5272C1.2896 23.2951 1.64943 24.0444 2.07661 24.7673H11.7079C12.5316 24.7673 13.3 24.2043 13.5336 23.4287L15.6174 16.5328L20.6483 34.6043C20.8535 35.3413 21.4054 35.6309 21.8525 35.655C21.8741 35.6561 21.896 35.6568 21.9175 35.6568C22.3548 35.6568 22.8946 35.4189 23.1694 34.7416L28.7662 20.9265L32.5264 29.193C32.7641 29.7144 33.2222 30.0436 33.7522 30.074C34.281 30.0993 34.7753 29.8287 35.0721 29.3377L37.8352 24.7674H45.1971C44.9439 25.108 44.6785 25.4428 44.3871 25.7638L25.0006 44.83L9.76327 29.8453L9.7421 29.8246C9.53459 29.6256 9.25111 29.5021 8.93776 29.5021C8.30048 29.5021 7.78337 30.0094 7.78337 30.6351C7.78337 30.8619 7.85292 31.0727 7.96972 31.2501L25.0001 48L46.0238 27.3243L46.0662 27.2806C46.7843 26.4938 47.394 25.6479 47.9148 24.7669C48.3419 24.0432 48.7078 23.2958 49.0026 22.5268H46.5356L37.7558 22.5272C37.0373 22.5272 36.2798 22.9507 35.9139 23.5571L33.9443 26.8156L29.98 18.1008C29.7302 17.553 29.2596 17.2294 28.7161 17.2294H28.6878C28.1329 17.2413 27.6646 17.586 27.4352 18.1524L22.1003 31.3224L16.9133 12.6903C16.6994 11.9247 16.1313 11.6474 15.6709 11.6427H15.6588C15.2003 11.6427 14.6344 11.911 14.4072 12.6648L11.4264 22.5266H3.47105C1.24888 17.7432 2.15758 11.9313 6.13581 8.0265C8.62215 5.58451 11.9284 4.23995 15.4443 4.23995L15.4453 4.24029Z" fill="#F22E0D"/>
</svg>
